<svg width="187" height="88" viewBox="0 0 187 88" fill="none" xmlns="http://www.w3.org/2000/svg">
<rect width="187" height="88" rx="20" fill="white"/>
<path d="M58.266 20.8741L70.5366 42.1316C71.2057 43.2911 71.2057 44.7195 70.5366 45.879L58.266 67.1365C57.5968 68.2959 56.36 69.0101 55.0215 69.0101H62.2123C63.5508 69.0101 64.7876 68.2959 65.4568 67.1365L77.7274 45.879C78.3965 44.7195 78.3965 43.2911 77.7274 42.1316L65.4568 20.8741C64.7876 19.7147 63.5506 19.0005 62.2123 19.0005H55.0215C56.36 19.0005 57.5968 19.7147 58.266 20.8741Z" fill="#39435A"/>
<path d="M58.266 20.8741C58.6051 21.4616 59.2286 21.8209 59.9054 21.8655C60.4911 21.9042 61.088 21.9673 61.6924 22.0561C62.5192 22.1778 63.3187 22.3416 64.0828 22.5418C65.0271 22.7892 65.9445 21.7196 65.4565 20.8741C64.7876 19.7147 63.5508 19.0005 62.2123 19.0005H55.0215C56.36 19.0005 57.5968 19.7147 58.266 20.8741Z" fill="#2C374C"/>
<path d="M44.4236 20.8741L56.6942 42.1316C57.3634 43.2911 57.3634 44.7195 56.6942 45.879L44.4236 67.1365C43.7545 68.2959 42.5176 69.0101 41.1791 69.0101H48.3699C49.7084 69.0101 50.9453 68.2959 51.6144 67.1365L63.885 45.879C64.5542 44.7195 64.5542 43.2911 63.885 42.1316L51.6144 20.8741C50.9451 19.7147 49.7083 19.0005 48.3697 19.0005H41.1791C42.5175 19.0005 43.7543 19.7147 44.4236 20.8741Z" fill="#39435A"/>
<path d="M44.9632 67.136L32.6927 45.8785C32.0235 44.719 32.0235 43.2906 32.6927 42.1312L44.9632 20.8737C45.6324 19.7142 46.8692 19 48.2077 19H41.017C39.6784 19 38.4416 19.7142 37.7724 20.8737L25.5019 42.1312C24.8327 43.2906 24.8327 44.719 25.5019 45.8785L37.7724 67.136C38.4416 68.2954 39.6784 69.0096 41.017 69.0096H48.2077C46.8692 69.0096 45.6324 68.2954 44.9632 67.136Z" fill="#435F94"/>
<path d="M52.0524 67.1361L39.7819 45.8786C39.1127 44.7191 39.1127 43.2907 39.7819 42.1313L52.0524 20.8738C52.7216 19.7147 53.9584 19.0005 55.297 19.0005H48.1062C46.7676 19.0005 45.5308 19.7147 44.8617 20.8741L32.5911 42.1316C31.9219 43.2911 31.9219 44.7195 32.5911 45.879L44.8617 67.1365C45.5308 68.2959 46.7676 69.0101 48.1062 69.0101H55.297C53.9584 69.0098 52.7216 68.2956 52.0524 67.1361Z" fill="#377DFF"/>
<path d="M59.2788 67.1361L47.0083 45.8786C46.3391 44.7191 46.3391 43.2907 47.0083 42.1313L59.2788 20.8738C59.948 19.7147 61.1848 19.0005 62.5234 19.0005H55.3326C53.994 19.0005 52.7572 19.7147 52.088 20.8741L39.8175 42.1316C39.1483 43.2911 39.1483 44.7195 39.8175 45.879L52.088 67.1365C52.7572 68.2959 53.994 69.0101 55.3326 69.0101H62.5234C61.1848 69.0098 59.948 68.2956 59.2788 67.1361Z" fill="#37DBFF"/>
<path d="M95.64 28.14L91.32 38.3C91.2267 38.5533 91.08 38.7533 90.88 38.9C90.6933 39.0333 90.4867 39.1 90.26 39.1C89.9 39.1 89.6333 39 89.46 38.8C89.2867 38.6 89.2 38.3533 89.2 38.06C89.2 37.94 89.22 37.8133 89.26 37.68L94.24 25.72C94.3467 25.4533 94.5067 25.2467 94.72 25.1C94.9467 24.9533 95.1867 24.8933 95.44 24.92C95.68 24.92 95.9 24.9933 96.1 25.14C96.3133 25.2733 96.4667 25.4667 96.56 25.72L101.48 37.44C101.547 37.6133 101.58 37.7733 101.58 37.92C101.58 38.28 101.46 38.5667 101.22 38.78C100.993 38.9933 100.74 39.1 100.46 39.1C100.22 39.1 100 39.0267 99.8 38.88C99.6133 38.7333 99.4667 38.5333 99.36 38.28L95.06 28.26L95.64 28.14ZM91.94 35.86L93.04 33.56H98.44L98.82 35.86H91.94ZM107.713 28.1C108.273 28.1 108.787 28.1867 109.253 28.36C109.72 28.5333 110.12 28.7533 110.453 29.02C110.8 29.2867 111.067 29.56 111.253 29.84C111.453 30.1067 111.553 30.3333 111.553 30.52L111.033 30.78V29.32C111.033 28.9733 111.147 28.6867 111.373 28.46C111.6 28.22 111.887 28.1 112.233 28.1C112.58 28.1 112.867 28.2133 113.093 28.44C113.32 28.6667 113.433 28.96 113.433 29.32V38.22C113.433 39.38 113.18 40.3067 112.673 41C112.18 41.7067 111.527 42.2133 110.713 42.52C109.9 42.84 109.027 43 108.093 43C107.827 43 107.48 42.9667 107.053 42.9C106.627 42.8333 106.22 42.7533 105.833 42.66C105.447 42.5667 105.153 42.48 104.953 42.4C104.553 42.2267 104.273 42.0067 104.113 41.74C103.967 41.4867 103.94 41.2133 104.033 40.92C104.153 40.5333 104.347 40.2667 104.613 40.12C104.88 39.9867 105.16 39.9733 105.453 40.08C105.587 40.12 105.807 40.2 106.113 40.32C106.42 40.44 106.753 40.5467 107.113 40.64C107.487 40.7467 107.813 40.8 108.093 40.8C109.093 40.8 109.833 40.6 110.313 40.2C110.793 39.8 111.033 39.2467 111.033 38.54V36.8L111.273 36.98C111.273 37.1533 111.18 37.3667 110.993 37.62C110.82 37.86 110.573 38.1 110.253 38.34C109.947 38.58 109.58 38.7867 109.153 38.96C108.727 39.12 108.273 39.2 107.793 39.2C106.847 39.2 105.993 38.9667 105.233 38.5C104.473 38.02 103.873 37.3667 103.433 36.54C102.993 35.7 102.773 34.74 102.773 33.66C102.773 32.5667 102.993 31.6067 103.433 30.78C103.873 29.94 104.467 29.2867 105.213 28.82C105.96 28.34 106.793 28.1 107.713 28.1ZM108.093 30.3C107.493 30.3 106.967 30.4467 106.513 30.74C106.06 31.0333 105.707 31.4333 105.453 31.94C105.2 32.4467 105.073 33.02 105.073 33.66C105.073 34.2867 105.2 34.8533 105.453 35.36C105.707 35.8667 106.06 36.2667 106.513 36.56C106.967 36.8533 107.493 37 108.093 37C108.707 37 109.24 36.8533 109.693 36.56C110.147 36.2667 110.5 35.8667 110.753 35.36C111.007 34.8533 111.133 34.2867 111.133 33.66C111.133 33.02 111.007 32.4467 110.753 31.94C110.5 31.4333 110.147 31.0333 109.693 30.74C109.24 30.4467 108.707 30.3 108.093 30.3ZM120.877 39.2C119.743 39.2 118.757 38.9667 117.917 38.5C117.09 38.02 116.45 37.3733 115.997 36.56C115.557 35.7467 115.337 34.8267 115.337 33.8C115.337 32.6 115.577 31.58 116.057 30.74C116.55 29.8867 117.19 29.2333 117.977 28.78C118.763 28.3267 119.597 28.1 120.477 28.1C121.157 28.1 121.797 28.24 122.397 28.52C123.01 28.8 123.55 29.1867 124.017 29.68C124.483 30.16 124.85 30.72 125.117 31.36C125.397 32 125.537 32.68 125.537 33.4C125.523 33.72 125.397 33.98 125.157 34.18C124.917 34.38 124.637 34.48 124.317 34.48H116.677L116.077 32.48H123.417L122.977 32.88V32.34C122.95 31.9533 122.81 31.6067 122.557 31.3C122.317 30.9933 122.01 30.7533 121.637 30.58C121.277 30.3933 120.89 30.3 120.477 30.3C120.077 30.3 119.703 30.3533 119.357 30.46C119.01 30.5667 118.71 30.7467 118.457 31C118.203 31.2533 118.003 31.5933 117.857 32.02C117.71 32.4467 117.637 32.9867 117.637 33.64C117.637 34.36 117.783 34.9733 118.077 35.48C118.383 35.9733 118.77 36.3533 119.237 36.62C119.717 36.8733 120.223 37 120.757 37C121.25 37 121.643 36.96 121.937 36.88C122.23 36.8 122.463 36.7067 122.637 36.6C122.823 36.48 122.99 36.38 123.137 36.3C123.377 36.18 123.603 36.12 123.817 36.12C124.11 36.12 124.35 36.22 124.537 36.42C124.737 36.62 124.837 36.8533 124.837 37.12C124.837 37.48 124.65 37.8067 124.277 38.1C123.93 38.3933 123.443 38.6533 122.817 38.88C122.19 39.0933 121.543 39.2 120.877 39.2ZM133.554 28.1C134.54 28.1 135.287 28.3067 135.794 28.72C136.314 29.1333 136.667 29.6867 136.854 30.38C137.054 31.06 137.154 31.82 137.154 32.66V37.78C137.154 38.1267 137.04 38.42 136.814 38.66C136.587 38.8867 136.3 39 135.954 39C135.607 39 135.32 38.8867 135.094 38.66C134.867 38.42 134.754 38.1267 134.754 37.78V32.66C134.754 32.22 134.694 31.8267 134.574 31.48C134.467 31.12 134.267 30.8333 133.974 30.62C133.68 30.4067 133.26 30.3 132.714 30.3C132.18 30.3 131.727 30.4067 131.354 30.62C130.994 30.8333 130.714 31.12 130.514 31.48C130.327 31.8267 130.234 32.22 130.234 32.66V37.78C130.234 38.1267 130.12 38.42 129.894 38.66C129.667 38.8867 129.38 39 129.034 39C128.687 39 128.4 38.8867 128.174 38.66C127.947 38.42 127.834 38.1267 127.834 37.78V29.52C127.834 29.1733 127.947 28.8867 128.174 28.66C128.4 28.42 128.687 28.3 129.034 28.3C129.38 28.3 129.667 28.42 129.894 28.66C130.12 28.8867 130.234 29.1733 130.234 29.52V30.38L129.934 30.32C130.054 30.0933 130.227 29.8533 130.454 29.6C130.68 29.3333 130.947 29.0867 131.254 28.86C131.56 28.6333 131.907 28.4533 132.294 28.32C132.68 28.1733 133.1 28.1 133.554 28.1ZM144.708 28.1C145.468 28.1 146.128 28.18 146.688 28.34C147.261 28.5 147.701 28.7267 148.008 29.02C148.328 29.3 148.488 29.64 148.488 30.04C148.488 30.3067 148.408 30.56 148.248 30.8C148.088 31.0267 147.854 31.14 147.548 31.14C147.334 31.14 147.154 31.1133 147.008 31.06C146.874 30.9933 146.754 30.9133 146.648 30.82C146.541 30.7267 146.414 30.64 146.268 30.56C146.134 30.48 145.928 30.42 145.648 30.38C145.381 30.3267 145.181 30.3 145.048 30.3C144.368 30.3 143.788 30.4467 143.308 30.74C142.841 31.0333 142.481 31.4333 142.228 31.94C141.974 32.4333 141.848 33.0067 141.848 33.66C141.848 34.3 141.974 34.8733 142.228 35.38C142.494 35.8733 142.854 36.2667 143.308 36.56C143.774 36.8533 144.308 37 144.908 37C145.241 37 145.528 36.98 145.768 36.94C146.008 36.9 146.208 36.84 146.368 36.76C146.554 36.6533 146.721 36.54 146.868 36.42C147.014 36.3 147.234 36.24 147.528 36.24C147.874 36.24 148.141 36.3533 148.328 36.58C148.514 36.7933 148.608 37.06 148.608 37.38C148.608 37.7133 148.421 38.02 148.048 38.3C147.674 38.5667 147.181 38.7867 146.568 38.96C145.968 39.12 145.314 39.2 144.608 39.2C143.554 39.2 142.641 38.96 141.868 38.48C141.094 37.9867 140.494 37.32 140.068 36.48C139.654 35.64 139.448 34.7 139.448 33.66C139.448 32.5667 139.668 31.6067 140.108 30.78C140.561 29.94 141.181 29.2867 141.968 28.82C142.768 28.34 143.681 28.1 144.708 28.1ZM158.478 28.3C158.825 28.3 159.112 28.42 159.338 28.66C159.565 28.8867 159.678 29.1733 159.678 29.52V38.02C159.678 39.2467 159.445 40.22 158.978 40.94C158.525 41.6733 157.912 42.2 157.138 42.52C156.365 42.84 155.498 43 154.538 43C154.112 43 153.658 42.9667 153.178 42.9C152.698 42.8333 152.305 42.7333 151.998 42.6C151.598 42.4267 151.318 42.2067 151.158 41.94C151.012 41.6867 150.985 41.4133 151.078 41.12C151.198 40.7333 151.392 40.4667 151.658 40.32C151.925 40.1867 152.205 40.1733 152.498 40.28C152.712 40.3467 152.992 40.4467 153.338 40.58C153.685 40.7267 154.085 40.8 154.538 40.8C155.152 40.8 155.658 40.7133 156.058 40.54C156.472 40.38 156.778 40.1 156.978 39.7C157.192 39.3133 157.298 38.78 157.298 38.1V36.76L157.718 37.24C157.492 37.68 157.205 38.0467 156.858 38.34C156.525 38.62 156.125 38.8333 155.658 38.98C155.192 39.1267 154.658 39.2 154.058 39.2C153.352 39.2 152.732 39.04 152.198 38.72C151.678 38.3867 151.272 37.9333 150.978 37.36C150.685 36.7733 150.538 36.1067 150.538 35.36V29.52C150.538 29.1733 150.652 28.8867 150.878 28.66C151.105 28.42 151.392 28.3 151.738 28.3C152.085 28.3 152.372 28.42 152.598 28.66C152.825 28.8867 152.938 29.1733 152.938 29.52V34.64C152.938 35.5067 153.125 36.12 153.498 36.48C153.885 36.8267 154.418 37 155.098 37C155.565 37 155.958 36.9133 156.278 36.74C156.598 36.5533 156.845 36.2867 157.018 35.94C157.192 35.58 157.278 35.1467 157.278 34.64V29.52C157.278 29.1733 157.392 28.8867 157.618 28.66C157.845 28.42 158.132 28.3 158.478 28.3Z" fill="#1D1D1D"/>
<path d="M98.68 52.6374C98.808 52.7227 98.8827 52.8347 98.904 52.9734C98.9253 53.1014 98.8933 53.2294 98.808 53.3574C98.7333 53.4534 98.6373 53.5067 98.52 53.5174C98.4027 53.528 98.2907 53.5067 98.184 53.4534C97.7787 53.1867 97.3413 52.9787 96.872 52.8294C96.4133 52.68 95.9173 52.6054 95.384 52.6054C94.7333 52.6054 94.1253 52.7227 93.56 52.9574C93.0053 53.1814 92.52 53.512 92.104 53.9494C91.688 54.376 91.3627 54.8827 91.128 55.4694C90.904 56.056 90.792 56.7014 90.792 57.4054C90.792 58.1307 90.9093 58.792 91.144 59.3894C91.3787 59.976 91.704 60.4827 92.12 60.9094C92.5467 61.336 93.0373 61.6614 93.592 61.8854C94.1467 62.1094 94.744 62.2214 95.384 62.2214C95.9067 62.2214 96.3973 62.1467 96.856 61.9974C97.3253 61.848 97.7627 61.6454 98.168 61.3894C98.2747 61.3254 98.3867 61.304 98.504 61.3254C98.632 61.336 98.7333 61.3947 98.808 61.5014C98.904 61.6187 98.936 61.7467 98.904 61.8854C98.8827 62.0134 98.8133 62.1147 98.696 62.1894C98.4293 62.36 98.1147 62.52 97.752 62.6694C97.3893 62.8187 97.0053 62.936 96.6 63.0214C96.1947 63.1174 95.7893 63.1654 95.384 63.1654C94.616 63.1654 93.896 63.0267 93.224 62.7494C92.552 62.472 91.9547 62.0827 91.432 61.5814C90.9093 61.0694 90.4987 60.4614 90.2 59.7574C89.912 59.0534 89.768 58.2694 89.768 57.4054C89.768 56.5734 89.912 55.8107 90.2 55.1174C90.488 54.4134 90.888 53.8054 91.4 53.2934C91.912 52.7814 92.5093 52.3814 93.192 52.0934C93.8747 51.8054 94.6053 51.6614 95.384 51.6614C95.992 51.6614 96.5787 51.7467 97.144 51.9174C97.7093 52.088 98.2213 52.328 98.68 52.6374ZM101.357 63.0054C101.208 63.0054 101.09 62.9574 101.005 62.8614C100.92 62.7654 100.877 62.6534 100.877 62.5254V55.3574C100.877 55.2294 100.92 55.1174 101.005 55.0214C101.101 54.9254 101.218 54.8774 101.357 54.8774C101.496 54.8774 101.608 54.9254 101.693 55.0214C101.789 55.1174 101.837 55.2294 101.837 55.3574V57.7574L101.597 57.8054C101.629 57.432 101.72 57.064 101.869 56.7014C102.029 56.328 102.242 55.9867 102.509 55.6774C102.776 55.368 103.09 55.1174 103.453 54.9254C103.826 54.7334 104.242 54.6374 104.701 54.6374C104.893 54.6374 105.08 54.68 105.261 54.7654C105.442 54.84 105.533 54.968 105.533 55.1494C105.533 55.3094 105.49 55.432 105.405 55.5174C105.32 55.6027 105.218 55.6454 105.101 55.6454C105.005 55.6454 104.898 55.6187 104.781 55.5654C104.674 55.512 104.53 55.4854 104.349 55.4854C104.05 55.4854 103.752 55.576 103.453 55.7574C103.154 55.928 102.882 56.1627 102.637 56.4614C102.392 56.76 102.194 57.096 102.045 57.4694C101.906 57.832 101.837 58.2 101.837 58.5734V62.5254C101.837 62.6534 101.789 62.7654 101.693 62.8614C101.597 62.9574 101.485 63.0054 101.357 63.0054ZM110.53 63.1654C109.709 63.1654 108.983 62.9894 108.354 62.6374C107.725 62.2854 107.234 61.7947 106.882 61.1654C106.53 60.536 106.354 59.8 106.354 58.9574C106.354 58.0507 106.53 57.2774 106.882 56.6374C107.245 55.9974 107.709 55.5067 108.274 55.1654C108.85 54.8134 109.458 54.6374 110.098 54.6374C110.567 54.6374 111.021 54.7227 111.458 54.8934C111.906 55.0534 112.301 55.2987 112.642 55.6294C112.994 55.9494 113.271 56.344 113.474 56.8134C113.687 57.2827 113.805 57.8267 113.826 58.4454C113.815 58.5734 113.762 58.6854 113.666 58.7814C113.57 58.8667 113.458 58.9094 113.33 58.9094H106.914L106.722 58.0454H113.026L112.818 58.2374V57.9174C112.775 57.416 112.615 56.9894 112.338 56.6374C112.061 56.2854 111.725 56.0187 111.33 55.8374C110.935 55.656 110.525 55.5654 110.098 55.5654C109.778 55.5654 109.447 55.6294 109.106 55.7574C108.775 55.8854 108.471 56.088 108.194 56.3654C107.927 56.632 107.709 56.9787 107.538 57.4054C107.367 57.8214 107.282 58.3174 107.282 58.8934C107.282 59.5227 107.41 60.0934 107.666 60.6054C107.922 61.1174 108.29 61.5227 108.77 61.8214C109.261 62.12 109.842 62.2694 110.514 62.2694C110.887 62.2694 111.223 62.216 111.522 62.1094C111.821 62.0027 112.082 61.864 112.306 61.6934C112.53 61.512 112.717 61.3254 112.866 61.1334C112.983 61.0374 113.101 60.9894 113.218 60.9894C113.325 60.9894 113.415 61.032 113.49 61.1174C113.575 61.2027 113.618 61.2987 113.618 61.4054C113.618 61.5334 113.565 61.6454 113.458 61.7414C113.138 62.1254 112.722 62.4614 112.21 62.7494C111.698 63.0267 111.138 63.1654 110.53 63.1654ZM122.807 54.8294C122.946 54.8294 123.058 54.8774 123.143 54.9734C123.239 55.0694 123.287 55.1867 123.287 55.3254V62.5254C123.287 62.6534 123.239 62.7654 123.143 62.8614C123.047 62.9574 122.935 63.0054 122.807 63.0054C122.669 63.0054 122.551 62.9574 122.455 62.8614C122.37 62.7654 122.327 62.6534 122.327 62.5254V60.6214L122.599 60.4934C122.599 60.792 122.514 61.096 122.343 61.4054C122.183 61.7147 121.959 62.0027 121.671 62.2694C121.383 62.536 121.042 62.7547 120.647 62.9254C120.263 63.0854 119.847 63.1654 119.399 63.1654C118.674 63.1654 118.023 62.9787 117.447 62.6054C116.882 62.232 116.434 61.72 116.103 61.0694C115.783 60.4187 115.623 59.688 115.623 58.8774C115.623 58.0454 115.789 57.3147 116.119 56.6854C116.45 56.0454 116.898 55.544 117.463 55.1814C118.029 54.8187 118.669 54.6374 119.383 54.6374C119.842 54.6374 120.269 54.7174 120.663 54.8774C121.069 55.0374 121.421 55.256 121.719 55.5334C122.018 55.8107 122.247 56.1307 122.407 56.4934C122.578 56.8454 122.663 57.2134 122.663 57.5974L122.327 57.3574V55.3254C122.327 55.1867 122.37 55.0694 122.455 54.9734C122.551 54.8774 122.669 54.8294 122.807 54.8294ZM119.479 62.2694C120.045 62.2694 120.546 62.1254 120.983 61.8374C121.421 61.5387 121.762 61.1334 122.007 60.6214C122.263 60.0987 122.391 59.5174 122.391 58.8774C122.391 58.248 122.263 57.6827 122.007 57.1814C121.762 56.68 121.421 56.28 120.983 55.9814C120.546 55.6827 120.045 55.5334 119.479 55.5334C118.925 55.5334 118.423 55.6774 117.975 55.9654C117.538 56.2534 117.191 56.648 116.935 57.1494C116.69 57.6507 116.567 58.2267 116.567 58.8774C116.567 59.5174 116.69 60.0987 116.935 60.6214C117.191 61.1334 117.538 61.5387 117.975 61.8374C118.413 62.1254 118.914 62.2694 119.479 62.2694ZM125.438 54.8614H129.166C129.294 54.8614 129.401 54.9094 129.486 55.0054C129.572 55.0907 129.614 55.1974 129.614 55.3254C129.614 55.4427 129.572 55.544 129.486 55.6294C129.401 55.7147 129.294 55.7574 129.166 55.7574H125.438C125.31 55.7574 125.198 55.7147 125.102 55.6294C125.017 55.5334 124.974 55.4267 124.974 55.3094C124.974 55.1814 125.017 55.0747 125.102 54.9894C125.198 54.904 125.31 54.8614 125.438 54.8614ZM127.086 52.6054C127.225 52.6054 127.337 52.6534 127.422 52.7494C127.518 52.8454 127.566 52.9574 127.566 53.0854V61.1174C127.566 61.416 127.604 61.64 127.678 61.7894C127.764 61.9387 127.87 62.04 127.998 62.0934C128.126 62.136 128.254 62.1574 128.382 62.1574C128.468 62.1574 128.542 62.1467 128.606 62.1254C128.681 62.0934 128.761 62.0774 128.846 62.0774C128.942 62.0774 129.022 62.1147 129.086 62.1894C129.161 62.264 129.198 62.36 129.198 62.4774C129.198 62.6267 129.113 62.7547 128.942 62.8614C128.772 62.9574 128.569 63.0054 128.334 63.0054C128.238 63.0054 128.094 63 127.902 62.9894C127.71 62.968 127.513 62.9094 127.31 62.8134C127.108 62.7067 126.937 62.5254 126.798 62.2694C126.67 62.0134 126.606 61.6454 126.606 61.1654V53.0854C126.606 52.9574 126.649 52.8454 126.734 52.7494C126.83 52.6534 126.948 52.6054 127.086 52.6054ZM132.476 62.5254C132.476 62.6534 132.428 62.7654 132.332 62.8614C132.236 62.9574 132.124 63.0054 131.996 63.0054C131.858 63.0054 131.74 62.9574 131.644 62.8614C131.559 62.7654 131.516 62.6534 131.516 62.5254V55.1654C131.516 55.0374 131.559 54.9254 131.644 54.8294C131.74 54.7334 131.858 54.6854 131.996 54.6854C132.135 54.6854 132.247 54.7334 132.332 54.8294C132.428 54.9254 132.476 55.0374 132.476 55.1654V62.5254ZM131.996 53.6134C131.772 53.6134 131.602 53.5654 131.484 53.4694C131.378 53.3627 131.324 53.2134 131.324 53.0214V52.8614C131.324 52.6694 131.383 52.5254 131.5 52.4294C131.628 52.3227 131.799 52.2694 132.012 52.2694C132.215 52.2694 132.37 52.3227 132.476 52.4294C132.594 52.5254 132.652 52.6694 132.652 52.8614V53.0214C132.652 53.2134 132.594 53.3627 132.476 53.4694C132.37 53.5654 132.21 53.6134 131.996 53.6134ZM134.938 54.6534C135.024 54.6534 135.109 54.68 135.194 54.7334C135.28 54.7867 135.344 54.8667 135.386 54.9734L138.186 61.6294L137.978 61.7574L140.842 54.9734C140.928 54.76 141.082 54.6587 141.306 54.6694C141.413 54.6694 141.514 54.7067 141.61 54.7814C141.706 54.8454 141.754 54.9414 141.754 55.0694C141.754 55.1334 141.744 55.1867 141.722 55.2294C141.712 55.2614 141.701 55.2987 141.69 55.3414L138.554 62.7014C138.469 62.8934 138.325 62.9947 138.122 63.0054C138.026 63.016 137.93 62.9947 137.834 62.9414C137.749 62.8774 137.685 62.7974 137.642 62.7014L134.49 55.3414C134.48 55.32 134.469 55.288 134.458 55.2454C134.448 55.2027 134.442 55.16 134.442 55.1174C134.442 55 134.485 54.8934 134.57 54.7974C134.656 54.7014 134.778 54.6534 134.938 54.6534ZM147.377 63.1654C146.556 63.1654 145.83 62.9894 145.201 62.6374C144.572 62.2854 144.081 61.7947 143.729 61.1654C143.377 60.536 143.201 59.8 143.201 58.9574C143.201 58.0507 143.377 57.2774 143.729 56.6374C144.092 55.9974 144.556 55.5067 145.121 55.1654C145.697 54.8134 146.305 54.6374 146.945 54.6374C147.414 54.6374 147.868 54.7227 148.305 54.8934C148.753 55.0534 149.148 55.2987 149.489 55.6294C149.841 55.9494 150.118 56.344 150.321 56.8134C150.534 57.2827 150.652 57.8267 150.673 58.4454C150.662 58.5734 150.609 58.6854 150.513 58.7814C150.417 58.8667 150.305 58.9094 150.177 58.9094H143.761L143.569 58.0454H149.873L149.665 58.2374V57.9174C149.622 57.416 149.462 56.9894 149.185 56.6374C148.908 56.2854 148.572 56.0187 148.177 55.8374C147.782 55.656 147.372 55.5654 146.945 55.5654C146.625 55.5654 146.294 55.6294 145.953 55.7574C145.622 55.8854 145.318 56.088 145.041 56.3654C144.774 56.632 144.556 56.9787 144.385 57.4054C144.214 57.8214 144.129 58.3174 144.129 58.8934C144.129 59.5227 144.257 60.0934 144.513 60.6054C144.769 61.1174 145.137 61.5227 145.617 61.8214C146.108 62.12 146.689 62.2694 147.361 62.2694C147.734 62.2694 148.07 62.216 148.369 62.1094C148.668 62.0027 148.929 61.864 149.153 61.6934C149.377 61.512 149.564 61.3254 149.713 61.1334C149.83 61.0374 149.948 60.9894 150.065 60.9894C150.172 60.9894 150.262 61.032 150.337 61.1174C150.422 61.2027 150.465 61.2987 150.465 61.4054C150.465 61.5334 150.412 61.6454 150.305 61.7414C149.985 62.1254 149.569 62.4614 149.057 62.7494C148.545 63.0267 147.985 63.1654 147.377 63.1654Z" fill="#1D1D1D"/>
</svg>
