<svg width="36" height="36" viewBox="0 0 36 36" fill="none" xmlns="http://www.w3.org/2000/svg">
<ellipse cx="18" cy="18.0036" rx="18" ry="18.0036" fill="#E2E2E2"/>
<g clip-path="url(#clip0_1_1705)">
<path d="M27.8996 9.02272C27.0378 9.63065 26.0835 10.0956 25.0736 10.3997C24.5316 9.77648 23.8112 9.33474 23.0099 9.13426C22.2087 8.93377 21.3652 8.9842 20.5935 9.27873C19.8218 9.57326 19.1592 10.0977 18.6953 10.7811C18.2314 11.4645 17.9885 12.2738 17.9996 13.0997V13.9997C16.418 14.0407 14.8508 13.69 13.4375 12.9786C12.0243 12.2673 10.8089 11.2175 9.89961 9.92272C9.89961 9.92272 6.29961 18.0227 14.3996 21.6227C12.5461 22.8809 10.3381 23.5118 8.09961 23.4227C16.1996 27.9227 26.0996 23.4227 26.0996 13.0727C26.0988 12.822 26.0747 12.572 26.0276 12.3257C26.9462 11.4199 27.5944 10.2762 27.8996 9.02272V9.02272Z" stroke="#383638" stroke-width="2" stroke-linecap="round" stroke-linejoin="round"/>
</g>
<defs>
<clipPath id="clip0_1_1705">
<rect width="21.6" height="21.6" fill="white" transform="translate(7.19922 6.32275)"/>
</clipPath>
</defs>
</svg>
