<svg width="36" height="36" viewBox="0 0 36 36" fill="none" xmlns="http://www.w3.org/2000/svg">
<ellipse cx="18" cy="17.9999" rx="18" ry="18.0036" fill="white"/>
<path d="M21.5992 13.519C23.0314 13.519 24.4049 14.088 25.4176 15.1007C26.4303 16.1134 26.9992 17.4869 26.9992 18.919V25.219H23.3992V18.919C23.3992 18.4417 23.2096 17.9838 22.872 17.6463C22.5344 17.3087 22.0766 17.119 21.5992 17.119C21.1218 17.119 20.664 17.3087 20.3264 17.6463C19.9889 17.9838 19.7992 18.4417 19.7992 18.919V25.219H16.1992V18.919C16.1992 17.4869 16.7681 16.1134 17.7808 15.1007C18.7935 14.088 20.167 13.519 21.5992 13.519V13.519Z" stroke="#383638" stroke-width="2" stroke-linecap="round" stroke-linejoin="round"/>
<path d="M12.6 14.4192H9V25.2192H12.6V14.4192Z" stroke="#383638" stroke-width="2" stroke-linecap="round" stroke-linejoin="round"/>
<path d="M10.8 11.7189C11.7941 11.7189 12.6 10.913 12.6 9.9189C12.6 8.92478 11.7941 8.1189 10.8 8.1189C9.80589 8.1189 9 8.92478 9 9.9189C9 10.913 9.80589 11.7189 10.8 11.7189Z" stroke="#383638" stroke-width="2" stroke-linecap="round" stroke-linejoin="round"/>
</svg>
