<svg width="36" height="36" viewBox="0 0 36 36" fill="none" xmlns="http://www.w3.org/2000/svg">
<ellipse cx="18" cy="17.9999" rx="18" ry="18.0036" fill="white"/>
<g clip-path="url(#clip0_202_337)">
<path d="M22.5 8.1189H13.5C11.0147 8.1189 9 10.1336 9 12.6189V21.6189C9 24.1042 11.0147 26.1189 13.5 26.1189H22.5C24.9853 26.1189 27 24.1042 27 21.6189V12.6189C27 10.1336 24.9853 8.1189 22.5 8.1189Z" stroke="#383638" stroke-width="2" stroke-linecap="round" stroke-linejoin="round"/>
<path d="M21.5986 16.5522C21.7096 17.3012 21.5817 18.0662 21.2329 18.7383C20.8842 19.4104 20.3324 19.9554 19.656 20.2959C18.9797 20.6363 18.2132 20.7548 17.4656 20.6345C16.718 20.5142 16.0273 20.1612 15.4919 19.6258C14.9565 19.0904 14.6035 18.3998 14.4832 17.6522C14.3629 16.9046 14.4814 16.1381 14.8219 15.4617C15.1623 14.7853 15.7073 14.2335 16.3795 13.8848C17.0516 13.536 17.8165 13.4081 18.5656 13.5192C19.3296 13.6325 20.0369 13.9885 20.5831 14.5346C21.1292 15.0808 21.4853 15.7881 21.5986 16.5522Z" stroke="#383638" stroke-width="2" stroke-linecap="round" stroke-linejoin="round"/>
<path d="M22.9492 12.1692H22.9582" stroke="#383638" stroke-width="2" stroke-linecap="round" stroke-linejoin="round"/>
</g>
<defs>
<clipPath id="clip0_202_337">
<rect width="21.6" height="21.6" fill="white" transform="translate(7.19922 6.31909)"/>
</clipPath>
</defs>
</svg>
