<svg width="36" height="36" viewBox="0 0 36 36" fill="none" xmlns="http://www.w3.org/2000/svg">
<ellipse cx="18" cy="17.9999" rx="18" ry="18.0036" fill="white"/>
<g clip-path="url(#clip0_202_354)">
<path d="M27.8977 9.01906C27.0358 9.62699 26.0816 10.092 25.0717 10.3961C24.5296 9.77282 23.8093 9.33108 23.008 9.13059C22.2067 8.9301 21.3632 8.98054 20.5915 9.27507C19.8199 9.5696 19.1573 10.094 18.6933 10.7774C18.2294 11.4608 17.9866 12.2702 17.9977 13.0961V13.9961C16.416 14.0371 14.8488 13.6863 13.4356 12.975C12.0223 12.2636 10.8069 11.2138 9.89766 9.91906C9.89766 9.91906 6.29766 18.0191 14.3977 21.6191C12.5441 22.8772 10.3361 23.5081 8.09766 23.4191C16.1977 27.9191 26.0977 23.4191 26.0977 13.0691C26.0968 12.8184 26.0727 12.5683 26.0257 12.3221C26.9442 11.4162 27.5924 10.2725 27.8977 9.01906V9.01906Z" stroke="#383638" stroke-width="2" stroke-linecap="round" stroke-linejoin="round"/>
</g>
<defs>
<clipPath id="clip0_202_354">
<rect width="21.6" height="21.6" fill="white" transform="translate(7.19922 6.31909)"/>
</clipPath>
</defs>
</svg>
