<svg xmlns="http://www.w3.org/2000/svg" width="364" height="379" fill="none"><path fill="#27AE60" stroke="#27AE60" stroke-linecap="round" stroke-width="3" d="M46.954 130.042v-31.24S92.057 309.727 91.32 311.406c-.735 1.679-13.723-.517-19.783-2.246-4.07-1.161-8.674-1.009-12.637-2.807-3.314-1.504-3.083-2.376-5.545-5.123-1.227-1.369-3.33-3.59-4.313-5.149-1.22-1.934-2.171-3.287-3.18-5.411-2.507-5.286-4.425-8.809-4.562-14.934-.416-18.712-.595-37.408-.595-56.147 0-20.778 2.453-41.165 4.73-61.63 1.03-9.244 1.518-18.63 1.518-27.917Zm12.775 182.447v-4.442l20.434 4.442c0-.47.29-1.346.531-.53.236.794.342 1.61.467 2.422.132.858.156 1.665.156 2.541 0 .741-.312.767-.989.466-1.138-.504-2.637-.292-3.882-.292-.643 0-1.365-.144-2.05-.165-.81-.023-2.02-.03-2.802-.246-1.016-.282-2.325-.083-3.378-.083-.86 0-1.66-.164-2.518-.164-1.264 0-2.412-.731-3.57-1.152-1.154-.419-2.4-1.504-2.4-2.797Z"/><path fill="#27AE60" d="M225.007 228.163c1.382 2.913 2.644 4.84 5.289 6.16s22.624-2.2 28.206-5.28c15.866-7.92 36.58-19.8 38.784-16.72s-13.662 21.56-21.595 30.361c-6.347 7.04-9.488 18.015-45.395 23.76l-6.611 29.04-7.261 31.706-19.183-1.76s3.526-15.865 0-16.305c-3.525-.441-14.961 5.77-16.075 7.505s-2.149 5.363-3.525 8.8h-18.07s1.531-6.6 0-7.92-47.599 1.345-49.802 1.32-2.204 9.24-2.204 9.24l-19.832-3.96s-.233-7.065-.233-8.825c0-1.32-3.966-2.2-4.847-2.64S61.289 204.094 61.289 204.094l10.578-6.266c0 2.085 1.739 4.2 1.739 6.035 0 1.891 4.061 1.158 5.335 1.158 1.806 0 3.523-.829 5.335-.927 2.09-.113 4.456-.371 6.495-.823 5.21-1.156 10.435-2.13 15.671-3.242 13.158-2.795 27.396-.566 40.723-.566 3.355 0 6.605.463 9.949.463 2.878 0 6.079-.38 8.918.103 2.906.494 5.842.101 8.711.72 2.202.475 5.061.515 7.32.566 2.211.05 4.399.804 6.624.952 2.022.135 5.039-.006 6.933.669 1.499.535 3.287.438 4.846.721 1.437.261 2.755 1.116 4.201 1.338 5.531.849 9.836 3.578 12.655 8.363.973 1.652 2.06 3.006 2.887 4.863.596 1.341 1.504 3.117 2.551 5.327 1.157 2.441 1.464 2.966 2.247 4.615"/><path fill="#27AE60" stroke="#27AE60" stroke-linecap="round" stroke-linejoin="round" stroke-width="3" d="M69.895 90.001c0-4.497 2.62-13.388 2.62-18.04l-25.561 28.16 14.335 103.51h12.317c-1.094-1.638-1.743-2.138-1.856-4.169-.086-1.546-.38-4.387-1.16-5.789-.726-1.305-.62-4.299-.696-5.79-.154-3.082-1.391-6.112-1.391-9.238 0-15.005.464-30.029.464-44.979 0-5.985.927-12.028.927-18.038 0-5.15-1.971-10.175-.463-15.067 1.187-3.851.463-6.526.463-10.56"/><path fill="#00ACDC" stroke="#00ACDC" stroke-linecap="round" stroke-width="3" d="M78.058 114.329c-2.258-.501-5.204 0-7.514 0 0 2.47-.214 5.599-.654 8.018-.6 3.291-.407 6.515-.361 9.831.025 1.78.03 3.549.106 5.325.006.14-.087 1.516.03 1.551.083.025.609-.277.697-.31.456-.17.896-.273 1.293-.558.671-.484 1.623-.826 2.182-1.428.396-.426.9-.633 1.287-1.092.485-.576 1.148-1.044 1.678-1.589 1.038-1.066 1.75-2.358 2.511-3.624.662-1.102 1.427-2.428 1.853-3.637.527-1.496 1.119-2.92 1.119-4.518 0-1.058-.06-2.066-.249-3.103-.428-2.352-1.467-4.309-3.978-4.866Z"/><path fill="#00ACDC" d="M75.881 183.104c-2.247-.05-3.415 1.549-5.402 2.404-.376.161-.655.593-.375 1.32.158.41.392 1.316.44 1.76.093.857.279 1.427.439 2.273.607 3.209.391 6.651 1.678 9.694.394.931.949 1.758 1.399 2.657.284.568.646.929 1.262 1.142.356.123.513.004.858-.162.235-.113.791-.159.957-.366.34-.425.804-.789 1.119-1.26 1.308-1.959 2.289-4.198 3.158-6.367.586-1.463.646-2.715.646-4.264 0-1.368-.768-2.67-1.23-3.916-.421-1.134-1.262-2.194-2.077-3.072-.71-.766-1.754-1.819-2.872-1.843"/><path fill="#00ACDC" d="m70.479 185.508-.593-1.378zm5.402-2.404-.033 1.499zm2.872 1.843-1.1 1.02zm2.076 3.072-1.406.522zm.585 8.18-1.393-.558zm-3.158 6.367-1.248-.833zm-1.12 1.26-1.17-.938zm-.956.366-.65-1.352zm-.858.162.49-1.418zm-1.262-1.142 1.341-.672zm-1.399-2.657-1.381.585zm-1.678-9.694-1.474.279zm-.438-2.273-1.492.161zm-.441-1.76-1.4.538v.001zm.968.057c1.118-.481 2.158-1.252 2.79-1.638.71-.432 1.273-.66 1.986-.644l.066-2.999c-1.534-.034-2.68.513-3.612 1.081-1.01.616-1.547 1.071-2.416 1.445zm4.776-2.282c.11.003.347.067.73.35.368.273.726.637 1.075 1.014l2.2-2.04c-.36-.389-.88-.934-1.49-1.386-.597-.44-1.44-.915-2.449-.937zm1.805 1.364c.783.844 1.456 1.726 1.77 2.574l2.813-1.044c-.527-1.42-1.536-2.657-2.383-3.57zm1.77 2.574c.13.352.28.701.416 1.016.14.326.266.619.378.911.226.589.343 1.055.343 1.467h3c0-.956-.267-1.825-.541-2.54-.138-.36-.29-.712-.424-1.023a19 19 0 0 1-.36-.875zm1.137 3.394c0 1.507-.064 2.52-.539 3.706l2.785 1.116c.697-1.74.754-3.231.754-4.822zm-.539 3.706c-.862 2.153-1.796 4.27-3.013 6.092l2.495 1.666c1.4-2.096 2.428-4.458 3.303-6.642zm-3.013 6.092a3 3 0 0 1-.376.433c-.162.167-.437.436-.666.722l2.341 1.876c.112-.139.24-.264.473-.504.204-.209.483-.501.723-.861zm-1.042 1.155c.097-.121.193-.195.253-.235s.105-.061.122-.069c.027-.012.022-.007-.051.013l-.115.03-.157.04a4 4 0 0 0-.204.06c-.073.024-.174.06-.283.113l1.298 2.704c-.08.039-.122.044-.037.022l.117-.03.17-.044a3.5 3.5 0 0 0 .481-.167c.164-.073.486-.234.747-.561zm-.435-.048-.222.108c-.041.02-.013.004.046-.013a1 1 0 0 1 .279-.03c.1.006.164.026.178.031l-.98 2.835a2.2 2.2 0 0 0 1.322.056 2.8 2.8 0 0 0 .571-.232l.104-.051zm.28.096a.6.6 0 0 1-.226-.121.9.9 0 0 1-.184-.275l-2.682 1.343c.432.864 1.073 1.529 2.113 1.888zm-.41-.396c-.246-.491-.525-.971-.753-1.378a12 12 0 0 1-.605-1.191l-2.763 1.169c.23.545.502 1.045.751 1.489.26.464.483.847.688 1.254zm-1.358-2.569c-.557-1.316-.807-2.762-.985-4.367-.171-1.535-.284-3.344-.601-5.021l-2.948.557c.29 1.531.372 3.048.567 4.796.187 1.679.473 3.476 1.204 5.204zm-1.586-9.388c-.2-1.058-.335-1.358-.421-2.157l-2.983.323c.1.915.336 1.756.456 2.391zm-.421-2.157c-.064-.593-.335-1.626-.532-2.138l-2.8 1.079c.12.309.317 1.088.35 1.382zm-.532-2.137c-.045-.117.025-.017-.053.192a.72.72 0 0 1-.379.404l-1.186-2.755a2.28 2.28 0 0 0-1.245 1.301c-.242.647-.172 1.326.063 1.935zm51.982 10.084c-.964.962-2.198 2.11-3.58 2.335.822 0 2.594-.523 3.444-.523h3.692c1.307 0 2.614.447 3.916.447.642 0 1.289.209 1.927.223.663.015 1.327 0 1.99 0h4.494c1.011 0 2.032-.098 3.04-.199.897-.089 1.824-.292 2.71-.353a17.8 17.8 0 0 1 4.469.273c.499.092.863.252 1.331.434.253.099.302.062.205-.155-.15-.336-.202-.752-.417-1.061-.314-.453-.459-.897-.895-1.235-.401-.312-.78-.819-1.088-1.217-1.113-1.44-2.177-3.267-3.754-4.282-1.241-.798-2.444-1.41-3.879-1.787-1.427-.375-2.652-.101-4.091-.025-.854.045-1.784.475-2.573.782-.79.307-1.637.486-2.375.918-1.581.927-3.218 1.759-4.761 2.768-1.288.842-2.707 1.561-3.805 2.657"/><path fill="#00ACDC" d="m119.906 198.708-.242-1.481a1.5 1.5 0 0 0 .242 2.981zm3.58-2.335 1.06 1.061zm3.805-2.657-.821-1.255zm4.761-2.768-.758-1.294zm2.375-.918.543 1.398zm2.573-.782-.078-1.498zm4.091.025.381-1.451zm3.879 1.787-.812 1.262zm3.754 4.282-1.187.917zm1.088 1.217.92-1.185zm.895 1.235 1.233-.855zm.417 1.061 1.37-.61zm-.205.155.546-1.397zm-1.331-.434-.272 1.475zm-4.469-.273.103 1.496zm-2.71.353.149 1.493zm-9.524.199.034-1.5zm-12.738 1.333c1.011-.164 1.885-.649 2.585-1.156.705-.51 1.325-1.11 1.814-1.598l-2.12-2.123c-.474.474-.953.929-1.452 1.29-.503.364-.938.566-1.31.626zm4.399-2.754c.952-.95 2.087-1.495 3.566-2.462l-1.642-2.511c-1.096.717-2.8 1.609-4.044 2.85zm3.566-2.462c1.512-.99 3.003-1.736 4.699-2.729l-1.517-2.589c-1.467.86-3.251 1.778-4.824 2.807zm4.699-2.729c.237-.14.52-.254.893-.381.323-.11.836-.267 1.266-.434l-1.086-2.796c-.36.139-.665.226-1.148.39a7.8 7.8 0 0 0-1.442.632zm2.159-.815c.464-.18.804-.329 1.21-.47.386-.133.678-.201.899-.212l-.157-2.996c-.633.033-1.233.204-1.723.373-.47.163-.99.382-1.315.509zm2.109-.682c1.728-.091 2.505-.318 3.631-.023l.762-2.901c-1.728-.454-3.401-.132-4.55-.072zm3.631-.023c1.234.325 2.29.854 3.448 1.599l1.623-2.523c-1.324-.852-2.674-1.547-4.309-1.977zm3.448 1.599c.584.375 1.123.935 1.686 1.649.278.353.548.724.829 1.114.275.382.567.79.864 1.174l2.374-1.834c-.259-.336-.517-.696-.804-1.094a35 35 0 0 0-.908-1.218c-.642-.814-1.424-1.675-2.418-2.314zm3.379 3.937c.258.333.767 1.028 1.355 1.484l1.84-2.369c-.215-.167-.463-.486-.821-.949zm1.355 1.484c.02.015.054.044.138.181.052.082.091.153.171.29.071.121.162.273.274.434l2.465-1.709c-.143-.206-.133-.231-.36-.596a3.5 3.5 0 0 0-.848-.969zm.583.905c-.029-.041-.017-.044.035.12l.039.124.049.158c.036.113.086.26.156.415l2.74-1.22c-.029-.067-.037-.108-.124-.385a3.4 3.4 0 0 0-.43-.921zm.279.817-.005-.012-.014-.037a1 1 0 0 1-.049-.199c-.017-.113-.112-.851.561-1.361.287-.218.579-.275.746-.289a1.3 1.3 0 0 1 .348.016c.106.019.163.045.124.03l-1.092 2.794c.087.035.246.093.429.127.079.014.691.141 1.257-.287.704-.535.619-1.316.591-1.495a2 2 0 0 0-.156-.507zm1.711-1.852c-.41-.16-.931-.388-1.604-.512l-.545 2.95c.325.06.532.151 1.057.356zm-1.604-.512a19.3 19.3 0 0 0-4.845-.295l.206 2.993c1.364-.094 2.734 0 4.094.252zm-4.845-.295c-.513.035-1.022.111-1.475.18-.473.073-.882.138-1.281.178l.298 2.985c.497-.05 1.001-.131 1.437-.197.456-.07.853-.127 1.227-.153zm-2.756.358c-1.015.101-1.966.191-2.891.191v3c1.096 0 2.189-.106 3.189-.206zm-2.891.191h-4.494v3h4.494zm-4.494 0c-.711 0-1.313.015-1.956 0l-.068 3c.682.015 1.409 0 2.024 0zm-1.956 0c-.19-.004-.398-.038-.748-.096-.307-.052-.748-.127-1.213-.127v3c.177 0 .38.029.716.085.294.049.729.127 1.177.138zm-1.961-.223c-.502 0-1.027-.087-1.703-.202-.63-.108-1.41-.245-2.213-.245v3c.505 0 1.032.086 1.707.202.63.107 1.409.245 2.209.245zm-3.916-.447h-3.692v3h3.692zm-3.692 0c-.611 0-1.445.174-2.028.291-.727.145-1.192.232-1.416.232v3c.598 0 1.43-.175 2.007-.291.721-.145 1.198-.232 1.437-.232zm-75.034-30.513c-1.016-4.693-2.452-9.71-2.452-14.545l-4.407 45.321-.882 22 .44 22.44c2.554-.637 5.857-1.341 7.758-3.24 1.164-1.162 1.879-2.146 2.684-3.552.472-.824.714-2.162 1.272-2.877 1.57-2.016 2.405-5.105 4.989-6.251 1.21-.537 2.18-2.144 3.578-2.144 1.182 0 2.11.092 3.22.338 2.964.657 3.448 3.451 4.114 6.112.89 3.55 3.005 5.51 6.46 6.588 3.468 1.082 6.133 1.608 9.82 1.608 1.056 0 3.057.372 3.955-.199.93-.591 4.81-.929 4.81-2.143 0-5.131-3.751-7.305-7.354-10.28-3.394-2.802-5.316-5.847-7.672-9.446-2.158-3.294-4.116-4.195-7.872-5.159-3.582-.92-8.036-.278-11.727-.278-5.2 0-4.988-5.533-5.526-9.565-.75-5.62-1.21-11.252-2.147-16.868-.995-5.963-1.785-11.968-3.06-17.86"/><path fill="#00ACDC" d="M45.864 151.627h1.5a1.5 1.5 0 0 0-2.993-.145zm2.452 14.545 1.466-.317zm3.061 17.86-1.48.247zm2.147 16.868 1.487-.199zm17.253 9.843-.373 1.453zm7.871 5.159-1.254.822zm7.673 9.446-.955 1.157zm2.544 12.423-.804-1.266zm-13.774-1.409.446-1.432zm-6.46-6.588 1.455-.365zm-4.115-6.112-.325 1.464zm-6.798 1.806.608 1.371zm-4.99 6.251 1.184.921zm-1.271 2.877 1.302.745zm-2.684 3.552 1.06 1.062zm-7.757 3.24-1.5.03a1.5 1.5 0 0 0 1.863 1.426zm.44-44.44-1.492-.146-.004.043-.002.043zm-.88 22-1.5-.06-.001.045v.044zm3.788-67.321c0 5.046 1.501 10.314 2.486 14.863l2.932-.635c-1.048-4.839-2.418-9.605-2.418-14.228zm2.486 14.863c1.266 5.846 2.04 11.756 3.048 17.789l2.959-.494c-.984-5.893-1.789-11.993-3.075-17.93zm3.048 17.789c.935 5.603 1.373 11.08 2.14 16.82l2.973-.398c-.735-5.499-1.214-11.286-2.154-16.916zm2.14 16.82c.063.479.117.985.173 1.525.055.532.113 1.097.184 1.659.141 1.117.343 2.313.73 3.409.387 1.102.993 2.197 2 3.012 1.03.833 2.342 1.261 3.925 1.261v-3c-1.017 0-1.63-.263-2.038-.594-.432-.349-.782-.889-1.058-1.675-.278-.79-.45-1.733-.582-2.788-.066-.524-.12-1.053-.177-1.595a57 57 0 0 0-.184-1.612zm7.012 10.866c1.818 0 4.082-.164 5.938-.206 1.988-.045 3.83.03 5.416.437l.746-2.906c-1.996-.512-4.172-.577-6.23-.53-2.189.049-3.998.205-5.87.205zm11.354.231c1.853.475 3.096.897 4.12 1.53.995.612 1.877 1.482 2.87 2.998l2.51-1.643c-1.165-1.778-2.341-3.007-3.805-3.909-1.432-.883-3.046-1.393-4.949-1.882zm6.99 4.528c2.335 3.566 4.374 6.81 7.972 9.781l1.91-2.313c-3.19-2.634-4.995-5.48-7.373-9.111zm7.972 9.781c1.933 1.596 3.577 2.73 4.864 4.173 1.193 1.337 1.945 2.821 1.945 4.95h3c0-3.002-1.123-5.171-2.706-6.947-1.49-1.67-3.523-3.111-5.193-4.489zm6.81 9.123c0-.584.457-.719.146-.545q-.324.182-1.115.408c-.552.158-1.008.262-1.59.419-.446.121-1.096.303-1.556.595l1.609 2.532c-.03.019.003-.006.164-.062q.215-.075.567-.169c.408-.111 1.097-.278 1.63-.43.558-.16 1.216-.373 1.756-.675.446-.25 1.388-.882 1.388-2.073zm-4.115.877c.033-.021-.02.021-.248.052a5 5 0 0 1-.822.028c-.332-.01-.674-.035-1.033-.062a15 15 0 0 0-1.048-.053v3c.197 0 .461.018.826.045.342.025.755.057 1.167.069.41.012.87.006 1.318-.055.432-.059.966-.185 1.449-.492zm-3.151-.035c-3.5 0-6.013-.491-9.373-1.54l-.893 2.864c3.575 1.116 6.394 1.676 10.266 1.676zm-9.373-1.54c-1.565-.488-2.724-1.144-3.58-1.997-.848-.846-1.482-1.968-1.871-3.524l-2.91.729c.499 1.994 1.367 3.628 2.663 4.919 1.288 1.284 2.915 2.147 4.805 2.737zm-5.451-5.521c-.308-1.227-.641-2.82-1.318-4.131-.736-1.424-1.926-2.637-3.927-3.081l-.65 2.929c.963.214 1.497.727 1.911 1.529.473.915.714 2.05 1.073 3.483zm-5.245-7.212c-1.228-.272-2.267-.373-3.545-.373v3c1.085 0 1.904.082 2.895.302zm-3.545-.373c-1.278 0-2.237.737-2.814 1.213-.39.322-.52.452-.828.698-.246.196-.416.304-.544.361l1.216 2.743c.477-.212.881-.505 1.201-.761.258-.206.685-.579.863-.726.56-.461.785-.528.906-.528zm-4.186 2.272c-1.71.759-2.763 2.132-3.54 3.378-.382.614-.747 1.282-1.063 1.832-.333.579-.637 1.074-.961 1.491l2.366 1.843c.46-.591.85-1.238 1.196-1.84.363-.632.663-1.186 1.008-1.739.68-1.089 1.335-1.834 2.21-2.222zm-5.564 6.701c-.45.576-.72 1.318-.897 1.812-.218.606-.342.976-.494 1.242l2.604 1.49c.32-.558.552-1.269.713-1.717.201-.56.332-.844.44-.984zm-1.391 3.054c-.75 1.309-1.386 2.182-2.441 3.236l2.12 2.123c1.271-1.27 2.064-2.365 2.925-3.869zm-2.441 3.236c-.723.721-1.783 1.279-3.079 1.741-1.294.462-2.664.776-3.982 1.105l.726 2.911c1.234-.308 2.793-.665 4.264-1.19 1.47-.524 3.011-1.267 4.19-2.444zm-3.343-85.605-4.407 45.32 2.986.291 4.407-45.321zm-4.413 45.406-.882 22 2.998.12.881-22zm-.883 22.089.441 22.441 3-.059-.441-22.441z"/><path fill="#00ACDC" stroke="#00ACDC" stroke-linecap="round" stroke-linejoin="round" stroke-width="3" d="M47.68 269.896c-2.227.404-4.352 1.285-6.599 1.766-.315 4.576.155 14.168 2.58 19.008 3.085 6.16 14.103 19.361 16.307 19.801 1.763.352 10.454 1.128 15.46 1.912-3.744-7.477-8.819-14.85-12.164-22.722-2.607-6.135-6.127-12.329-10.893-17.086-1.367-1.366-2.454-3.086-4.69-2.679m168.993-16.646c2.734 1.011 11.65 7.939 12.091 11.459-.48 10.375-2.84 31.267-8.433 31.842-.822 0-3.649-.714-4.473-.714-2.435 0-4.489-.684-6.619-1.866-3.057-1.696 1.751-9.091 2.704-10.993.785-1.569 1.437-4.014.795-5.795-.45-1.248-2.808-2.963-3.857-3.771-1.382-1.065-2.979-1.287-4.571-1.865-2.441-.886-5.142-1.081-7.613-1.945-1.395-.487-3.295-1.27-4.771-1.27-2.986 0-6.115.322-8.964 1.27-2.319.772-4.513 2.797-5.923 4.723-1.823 2.49-5.024 5.126-7.593 6.867-4.032 2.731-8.732 2.143-13.338 2.143-4.782 0-9.267 2.803-12.622 6.152-1.785 1.782-3.669 3.836-5.605 5.417-1.193.974-2.963 1.284-3.399-.675-.794-3.566.386-6.664 3.359-8.553 3.468-2.203 6.928-4.701 10.495-6.906 3.311-2.046 4.839-6.606 8.507-7.937 2.188-.795 4.242-1.429 6.6-1.429 1.363 0 3.952-.707 5.168-1.35 2.292-1.211 4.594-2.596 6.817-3.83 1.521-.843 2.881-2.082 4.473-2.877 5.091-2.541 10.309-4.697 15.385-7.303 5.101-2.619 9.755-2.5 15.365-2.5 2.218 0 4.03.97 6.022 1.706"/><path fill="#27AE60" stroke="#27AE60" stroke-linecap="round" stroke-width="3" d="M65.12 43.418c2.678 1.126 4.861 1.685 7.741 2.246 0 7.545 4.336 18.953.728 26.158-3.027 6.043-10.45 10.471-15.085 15.193-3.202 3.261-5.645 7.068-9.164 10.04-2.517 2.127-4.715 2.819-7.443 4.03-3.537 1.569-9.377.462-13.233.462-4.076 0-8.074-1.197-11.777-2.84-1.843-.818-3.969-1.529-5.69-2.51-1.665-.95-2.739-2.165-4.433-3.105C2.987 90.997 2 88.077 2 84.009c0-4.825.618-7.141 2.977-11.262 1.264-2.208 5.67-5.717 8.04-6.243 3.698-.82 7.707-3.08 11.61-4.194 3.841-1.096 7.614-4.12 9.529-7.464 1.647-2.878 2.76-6.384 4.763-8.885 2.159-2.694 5.973-3.27 9.23-3.27 3.076 0 8.306-1.965 11.314-.297 1.565.868 3.963.312 5.657 1.024Z"/><path stroke="#04294F" stroke-linecap="round" stroke-width="3" d="M44.521 50.81c-.411 1.872-1.632 4.059-1.632 5.973m12.51-4.344c0 2.38 1.088 9.44 1.088 7.058M28.072 75.836c-.055-2.243-2.272-3.125-4.325-3.239-1.968-.109-2.15 2.274-2.974 3.509m-4.324-.001c-.19-.485-1.299-3.983-2.644-2.909-1.048.837-2.568 1.246-3.033 2.639"/><path stroke="#fff" stroke-linecap="round" stroke-width="3" d="M15.096 90.138c.35.145 2.109 1.284 2.644.75.294-.294.055-1.157-.21-1.29m2.973.001c.038.022 2.643 1.832 2.703.81.047-.804 0-1.626 0-2.43m1.892.541c.681.398 4.055 2.23 4.055.404 0-.8-.138-1.112-.66-1.634-.681-.68-.415.147-.962.42m2.432 0c1.057.411 3.929 2.279 4.056 0 .016-.29.756-2.072-.136-1.874-.75.166-1.333.833-2.027 1.064"/><path fill="#00ACDC" stroke="#00ACDC" stroke-linecap="round" stroke-width="3" d="M74.58 63.88c-.414-3.88-.28-7.82-.28-11.719 1.595 0 3.81.068 5.184.921.338.21.779.462 1.04.755.338.378.415.884.692 1.292.586.864 1.232 2.04 1.537 3.02.617 1.978 1.74 4.447.95 6.537-.653 1.727-1.862 3.528-3.241 4.862-1.15 1.11-2.446 2.249-3.899 3.02-.61.323-1.165.9-1.746 1.285-.301.199-.42.543-.391.07.046-.76.251-1.536.251-2.328 0-2.577.18-5.112-.098-7.715Z"/><path fill="#57455E" stroke="#57455E" stroke-linecap="round" stroke-width="3" d="M76.037 2c1.206 0 1.12.258 2.326.258 3.308 0 5.686 4.138 5.686 7.224 0 1.848.463 4.38-.058 6.135-.697 2.35-1.022 4.787-1.751 7.153-.914 2.963-1.867 5.89-2.642 8.9-.378 1.468-.702 2.935-1.106 4.387-.297 1.07-.914 2.172-1.148 3.225-.433 1.946-1.16 4.886-3.116 5.862-1.221.61-1.305.46-2.455.46-.808 0-1.595-.259-2.34-.259-2.521 0-4.989-.635-7.48-1.018-1.357-.208-2.898-.014-4.264-.014-1.808 0-3.845-.252-5.628.057-2.095.364-4.167.241-6.26.473-1.858.207-3.529.502-5.427.502-.854 0-2.369.379-2.326-.831.039-1.081.688-3.056 1.292-4.014 1.536-2.434 2.69-5.094 4.264-7.54 1.1-1.707 2.533-3.399 3.949-4.844 2.546-2.599 4.758-5.575 7.15-8.314 4.322-4.949 8.621-10.396 13.84-14.448 1.056-.82 2.63-2.077 3.934-2.38C73.712 2.689 74.725 2 76.037 2Z"/><path stroke="#04294F" stroke-linecap="round" stroke-width="3" d="M75.78 39.668c-6.922-1.48-12.842-2.58-19.9-2.58-5.004 0-10.47.732-15.247 2.322"/><path fill="#EB5757" d="M58.756 320.675c.494-2.576.77-5.388.77-8.005 4.001 1.59 13.656 4.108 21.89 2.2.147.88.388 2.242.388 3.277 0 2.132-.236 4.131-.387 6.249-.294 4.11-.728 8.783-3.484 12.035-1.171 1.382-3.078 2.744-4.733 3.478-1.32.586-2.396 1.157-3.893 1.193-3.179.075-6.39.198-9.6.198-2.147 0-4.8.188-6.857-.496-2.044-.681-4.182-.37-6.082-1.59-2.333-1.497-.561-5.66 1.094-6.945 2.841-2.206 6.504-3.824 9.014-6.426 1.209-1.254 1.566-3.532 1.88-5.168"/><path fill="#EB5757" d="m59.527 312.67.553-1.394a1.5 1.5 0 0 0-2.053 1.394zm-.77 8.005-1.474-.282zm-1.881 5.168 1.08 1.041zm-9.013 6.426-.92-1.185zm-1.095 6.945.81-1.263zm6.082 1.59-.473 1.423zm16.457.298.035 1.499zm3.893-1.193-.609-1.371zm4.733-3.478-1.144-.97zm3.484-12.035 1.496.107zm0-9.526 1.48-.245a1.5 1.5 0 0 0-1.819-1.216zm-23.39-2.2c0 2.518-.267 5.236-.744 7.723l2.946.565c.511-2.666.797-5.573.797-8.288zm-.744 7.723c-.165.861-.316 1.741-.568 2.578q-.38 1.27-.919 1.83l2.16 2.083c.85-.881 1.327-2.035 1.632-3.05.308-1.024.492-2.101.641-2.876zm-1.487 4.408c-1.122 1.164-2.534 2.139-4.107 3.137-1.523.966-3.252 1.985-4.746 3.146l1.84 2.369c1.345-1.045 2.868-1.938 4.514-2.982 1.597-1.013 3.27-2.148 4.659-3.587zm-8.853 6.283c-1.145.888-2.154 2.566-2.576 4.203-.412 1.598-.412 3.904 1.59 5.189l1.62-2.525c-.329-.211-.61-.735-.305-1.914.294-1.14.999-2.186 1.51-2.584zm-.986 9.392c1.221.784 2.486 1.049 3.568 1.217 1.156.18 1.987.246 2.852.534l.947-2.847c-1.18-.392-2.439-.511-3.338-.651-.973-.152-1.728-.341-2.408-.778zm6.42 1.751c1.231.41 2.578.54 3.819.581 1.213.039 2.526-.008 3.511-.008v-3c-1.161 0-2.249.047-3.413.009-1.137-.037-2.146-.154-2.97-.429zm7.33.573c3.234 0 6.486-.124 9.635-.199l-.07-2.999c-3.209.076-6.378.198-9.565.198zm9.635-.199c1.866-.044 3.256-.784 4.466-1.321l-1.217-2.742c-1.431.635-2.19 1.037-3.32 1.064zm4.466-1.321c1.837-.815 3.935-2.305 5.27-3.879l-2.29-1.94c-1.008 1.191-2.724 2.424-4.197 3.077zm5.27-3.879c3.123-3.685 3.547-8.877 3.835-12.898l-2.992-.214c-.3 4.2-.743 8.354-3.132 11.172zm3.835-12.898c.145-2.031.391-4.152.391-6.356h-3c0 2.061-.225 3.936-.383 6.142zm.391-6.356c0-1.189-.27-2.698-.407-3.522l-2.96.49c.155.936.367 2.151.367 3.032zm-24.332-4.083c4.126 1.639 14.12 4.275 22.783 2.267l-.677-2.922c-7.805 1.808-17.122-.593-20.998-2.133z"/><path fill="#FFB400" d="M87.292 329.389c1.751-1.846 1.322-4.633 1.322-6.97 3.385-.615 7.833.276 11.35.198 2.379-.052 4.767-.198 7.166-.198 1.463 0 1.13 1.201 1.394 2.385.531 2.387.354 5.062.354 7.508 0 2.354-.136 4.661-.199 7-.111 4.092-6.219 5.144-9.29 5.852-1.764.406-3.49 1.201-5.287 1.457-1.465.209-3.054.044-4.534.044-1.7 0-3.24-.109-4.822-.75-1.644-.667-3.402-.758-4.977-1.634-.863-.481-1.468-.751-2.145-1.392-.598-.565-1.53-1.169-1.991-1.833-.825-1.189.251-3.186.863-4.195.615-1.017 1.011-2.316 2.123-2.871 1.27-.634 2.81-.737 4.18-1.237.992-.361 1.956-.988 2.787-1.634.784-.609 1.026-1.014 1.706-1.73"/><path fill="#FFB400" d="m88.614 322.419-.268-1.476a1.5 1.5 0 0 0-1.232 1.476zm-1.322 6.97 1.088 1.033zm-1.706 1.73.92 1.185zm-2.787 1.634.514 1.409zm-4.18 1.237-.67-1.342zm-2.123 2.871-1.283-.777zm-.863 4.195-1.233.855zm1.99 1.833-1.03 1.09zm2.146 1.392-.73 1.31zm4.977 1.634.564-1.39zm9.356.706-.212-1.485zm5.287-1.457-.337-1.462zm9.29-5.852-1.5-.041zm-.155-14.508-1.464.325zm-8.56-2.187.033 1.5zm-12.85-.198c0 1.352.106 2.394.002 3.533-.096 1.049-.361 1.824-.912 2.405l2.176 2.065c1.2-1.266 1.596-2.807 1.724-4.197.119-1.301.01-2.822.01-3.806zm-.91 5.938c-.842.887-.87 1.059-1.537 1.577l1.84 2.37c.9-.699 1.356-1.337 1.873-1.882zm-1.537 1.577c-.776.603-1.599 1.125-2.382 1.41l1.029 2.818c1.2-.437 2.305-1.169 3.192-1.858zm-2.382 1.41c-.576.211-1.184.336-1.955.517-.72.168-1.575.384-2.381.787l1.34 2.684c.464-.231 1.014-.384 1.725-.55.658-.154 1.506-.33 2.3-.62zm-4.336 1.304c-.925.462-1.485 1.205-1.862 1.829-.188.311-.352.631-.49.897a13 13 0 0 1-.384.71l2.566 1.554c.185-.306.348-.624.485-.889.145-.281.264-.511.391-.721.253-.419.447-.603.634-.696zm-2.736 3.436c-.32.527-.82 1.405-1.119 2.359-.277.886-.518 2.279.306 3.468l2.466-1.709c0-.001-.116-.201.091-.863.187-.595.53-1.22.822-1.701zm-.813 5.827c.356.513.845.942 1.216 1.251.441.367.722.576.977.817l2.061-2.179c-.342-.325-.826-.7-1.117-.942-.36-.3-.567-.506-.671-.656zm2.193 2.068c.853.807 1.688 1.19 2.447 1.612l1.459-2.621c-.967-.538-1.342-.695-1.845-1.17zm2.447 1.612c.967.539 1.961.818 2.82 1.038.906.232 1.62.391 2.322.676l1.128-2.78c-.942-.382-1.929-.603-2.706-.802-.826-.211-1.498-.415-2.105-.753zm5.142 1.714c1.855.752 3.629.86 5.386.86v-3c-1.644 0-2.949-.109-4.258-.64zm5.386.86c.736 0 1.393.04 2.243.056.79.016 1.65.007 2.503-.115l-.424-2.97c-.612.088-1.28.101-2.02.086-.68-.013-1.558-.057-2.302-.057zm4.746-.059c1.034-.147 2.019-.445 2.903-.729.92-.295 1.707-.567 2.508-.751l-.673-2.924c-.962.222-1.92.551-2.753.819-.87.279-1.646.507-2.409.615zm5.411-1.48c1.448-.334 3.937-.811 6.033-1.75 2.062-.925 4.34-2.573 4.42-5.524l-2.999-.081c-.031 1.142-.862 2.066-2.649 2.867-1.754.787-3.854 1.19-5.478 1.564zm10.453-7.274c.062-2.27.2-4.665.2-7.04h-3c0 2.333-.134 4.552-.199 6.959zm.2-7.04c0-2.293.189-5.235-.39-7.834l-2.928.651c.484 2.176.318 4.584.318 7.183zm-.39-7.834a6 6 0 0 1-.095-.7c-.026-.252-.065-.655-.178-1.036-.122-.412-.367-.935-.899-1.326-.522-.383-1.126-.497-1.686-.497v3c.172 0 .075.036-.09-.085-.175-.129-.212-.277-.202-.241.02.067.039.187.071.492.026.257.062.647.151 1.044zm-2.858-3.559c-2.404 0-4.916.148-7.2.199l.067 2.999c2.474-.055 4.739-.198 7.133-.198zm-7.2.199c-1.667.037-3.536-.156-5.587-.298-1.975-.136-4.101-.221-5.997.123l.536 2.952c1.49-.271 3.28-.218 5.254-.082 1.898.131 4.012.345 5.861.304z"/><path stroke="#04294F" stroke-linecap="round" stroke-width="3" d="M61.897 324.804c0-1.5-.048-2.024-.84-3.224-.754-1.141-1.854-1.901-2.943-2.694-1.105-.806-4.054-1.842-4.866-.221-2.058 4.109 3.69 5.211 6.304 6.139.688.244 1.384.199 2.101.199.334 0 .493.015-.022 0-1.517-.044-2.808-.618-4.191-1.182-2.305-.939-5.17-1.993-7.4-.375-2.235 1.624-3.95 5.033-.64 6.327 2.6 1.016 4.86-.617 6.823-2.286.914-.777 2.34-1.791 2.887-2.882m29.661 5.565c0-2.407.063-4.634-2.389-5.962-.908-.493-1.302-1.106-2.389-1.347-.505-.113-1.75-.219-1.791.552-.112 2.113 1.789 3.331 3.23 4.615.28.251 4.05 2.251 1.901 1.899-2.522-.413-4.573-2.341-7.122-2.341-.735 0-.796.754-.796 1.347 0 1.201.14 1.982 1.349 2.474.836.34 1.526.852 2.433 1.148.833.272 2.376.439 3.23.154.878-.292 1.746-.948 2.145-1.744m-77.8-242.716h8.169c2.615 0 5.784-.256 8.169-1.35 2.143-.983 4.626-1.782 6.908-2.368 1.545-.397 3.391-.477 4.595-1.68"/><path fill="#FFB400" stroke="#FFB400" stroke-linecap="round" stroke-linejoin="round" stroke-width="3" d="M159.043 330.645c.259-1.743.528-4.756.528-6.535 5.058.184 16.683.992 19.833-.881 0 .74 0 1.321-.441 2.641-.441 2.2-.567 2.953-.809 4.687-.513 3.673-.934 7.134-1.681 10.754-.694 3.366-1.487 7.079-5.132 8.292-.936.312-1.981.906-2.952 1.027-1.466.183-3.137-.055-4.568.254-1.842.397-4.357.402-6.171 0-1.563-.347-3.221-.395-4.745-.928-1.331-.465-2.341-.93-2.776-2.341-.317-1.03-.044-2.566-.044-3.632 0-4.095 3.92-5.781 6.216-8.646 1.077-1.344 2.475-2.888 2.742-4.692"/><path fill="#EB5757" stroke="#EB5757" stroke-linecap="round" stroke-linejoin="round" stroke-width="3" d="M197.663 325.003c7.555 1.067 16.419-2.735 19.907-4.77 0 6.582-.306 13.334-1.438 19.831-.595 3.419-2.139 8.478-5.176 10.577-2.757 1.906-7.415 1.802-10.595 2.231-3.032.409-12.423 1.95-14.642-1.082-1.505-2.056-1.028-4.694.796-6.515 2.61-2.605 5.017-5.175 7.211-8.148 2.687-3.641 3.937-7.602 3.937-12.124"/><path stroke="#04294F" stroke-linecap="round" stroke-width="3" d="M157.65 336.133c0-.978.106-1.642-.598-2.385-.648-.686-1.256-1.443-1.836-2.187-.417-.535-3.299-2.486-3.627-1.082-.659 2.821.815 3.565 2.831 4.859.075.048.98.65.951.75-.027.095-3.487-.97-3.793-1.048-1.854-.476-2.759-.458-3.075 1.589-.214 1.392.991 2.256 2.334 2.286 1.599.036 2.717-.089 4.203-.696.816-.333 1.305-.938 2.012-1.291m38.023.398c0-1.923.71-5.254-.796-6.758-.765-.763-2.462-1.398-3.031-.066-1.159 2.716.839 5.076 1.991 7.42.279.568.44 1.371.885 1.833.459.477 1.028.898.221.11-1.17-1.142-2.676-1.954-4.004-2.893-.65-.46-1.423-1.206-2.278-1.236-2.145-.077-2.633 2.376-2.3 4.173.402 2.17 4.183 2.565 5.928 2.341 1.292-.166 2.471-.792 3.583-1.347"/><path fill="#EB5757" stroke="#EB5757" stroke-linecap="round" stroke-width="3" d="M54.678 134.907c1.3-1.009.441-.44 1.06-1.145 1.129-1.449 5.546-1.675 6.704.347.435.76.725 2.692.362 3.552-.275.653-.114 1.376-.408 2.036-.247.555-.664.912-1.076 1.323-.8.799-1.75 1.863-2.957 1.934-1.195.07-3.014.023-3.976-.724-.515-.4-1.53-.772-1.53-1.425 0-.837-.072-1.68.16-2.488.533-1.867.099-2.197 1.661-3.41Z"/><path fill="#EB5757" d="M63.582 174.404c1.116-1.239 2.996-1.395 4.759-1.657.353 2.376.848 6.839.881 9.241.016 1.098-.111 1.246-1.668 1.477-1.281.19-2.223.346-3.282-.335-1.77-1.138-1.72-3.826-1.596-5.626.064-.927.201-2.317.906-3.1"/><path fill="#EB5757" d="m68.34 172.747 1.485-.22a1.5 1.5 0 0 0-1.705-1.263zm-4.758 1.657 1.115 1.004zm-.906 3.1 1.496.104zm1.596 5.626.81-1.262zm4.95-1.142 1.5-.021zm-1.102-10.724c-.807.119-1.854.241-2.797.498-.972.266-2.03.721-2.856 1.639l2.23 2.007c.29-.321.73-.564 1.418-.752.717-.196 1.49-.283 2.447-.425zm-5.653 2.137c-.599.665-.885 1.494-1.04 2.159-.159.685-.215 1.365-.248 1.84l2.993.208c.032-.452.076-.93.178-1.368.106-.457.24-.714.347-.832zm-1.288 3.999c-.063.914-.121 2.199.11 3.439.23 1.237.794 2.667 2.172 3.553l1.622-2.524c-.392-.251-.689-.735-.845-1.576-.156-.839-.127-1.798-.066-2.684zm2.282 6.992c1.6 1.028 3.111.735 4.313.556l-.441-2.967c-1.36.202-1.732.221-2.25-.113zm4.313.556a10 10 0 0 0 1.098-.211c.32-.088.745-.241 1.113-.573.411-.373.595-.825.674-1.223.068-.344.067-.703.063-.974l-3 .041a5 5 0 0 1-.002.28c-.003.066-.007.082-.004.07a.7.7 0 0 1 .06-.166.9.9 0 0 1 .195-.253.7.7 0 0 1 .159-.11c.017-.008.006-.001-.055.016-.06.016-.148.037-.276.06q-.189.035-.466.076zm2.948-2.981c-.034-2.501-.54-7.041-.897-9.44l-2.968.44c.35 2.354.833 6.74.865 9.041z"/><path fill="#EB5757" stroke="#EB5757" stroke-linecap="round" stroke-linejoin="round" stroke-width="3" d="M45.415 186.726c-1.175.52-1.647 1.324-1.938 2.646l-2.04 29.317c.668-1.333 2.345-2.064 2.901-3.507.687-1.783 2.063-3.06 2.198-5.089.065-.966.387-1.875.408-2.851.029-1.345.116-2.761.215-4.105.2-2.696.397-5.345.397-8.064 0-2.168.326-4.674-.102-6.809-.263-1.312-.52-2.213-2.04-1.538"/><path fill="#EB5757" d="M90.818 209.268c.882-.44.882-.44 2.211-.963 1.188 0 2.43-.203 3.67-.203s3.839-.024 4.487 1.108c2.388 4.172-1.638 8.714-5.189 10.7-2.21 1.235-4.987 1.459-7.352.497l-.02-.008c-.684-.278-1.917-.779-1.917-1.609v-2.138c0-1.983.722-4.392 2.243-5.802.997-.924.545-.702 1.867-1.582"/><path fill="#EB5757" d="M93.03 208.305v-1.5c-.189 0-.375.035-.55.104zm-2.212.963-.67-1.342-.083.042-.078.051zm-1.867 1.582 1.02 1.1zm-.326 9.549.564-1.39zm.02.008.565-1.389zm7.352-.497-.732-1.31zm5.189-10.7-1.302.745zm-8.706-2.301c-1.354.533-1.398.551-2.332 1.017l1.34 2.684c.829-.413.785-.396 2.09-.909zm-2.493 1.11c-.651.434-.977.666-1.264.942-.115.11-.247.253-.325.334-.1.104-.24.244-.467.455l2.04 2.2c.27-.251.45-.43.586-.572.159-.165.183-.195.245-.254.067-.064.176-.161.847-.607zm-2.056 1.731c-1.923 1.783-2.723 4.654-2.723 6.902h3c0-1.718.644-3.665 1.763-4.702zm-2.723 6.902v2.138h3v-2.138zm0 2.138c0 1.213.889 1.937 1.367 2.257.542.364 1.165.612 1.484.741l1.13-2.779c-.365-.148-.7-.29-.944-.454-.117-.078-.145-.118-.135-.104a.6.6 0 0 1 .098.339zm2.851 2.998.021.009 1.13-2.779-.02-.009zm.02.009c2.808 1.141 6.061.87 8.65-.578l-1.464-2.619c-1.83 1.024-4.13 1.2-6.055.418zm8.65-.578c1.954-1.092 4.061-2.892 5.373-5.063 1.33-2.2 1.937-4.981.386-7.691l-2.604 1.49c.837 1.462.625 3.038-.349 4.649-.99 1.639-2.672 3.103-4.27 3.996zm5.759-12.754c-.38-.664-.98-1.049-1.494-1.277-.522-.231-1.09-.361-1.602-.439-1.02-.156-2.097-.147-2.692-.147v3c.644 0 1.486-.003 2.238.112.374.057.654.134.84.217.194.086.162.122.106.024zm-5.788-1.863c-.693 0-1.374.056-1.98.107-.626.051-1.17.096-1.69.096v3c.667 0 1.338-.057 1.939-.107a21 21 0 0 1 1.73-.096z"/><path fill="#EB5757" stroke="#EB5757" stroke-linecap="round" stroke-width="3" d="M54.896 232.125c1.688-1.965 2.18-4.657 4.283-6.311.405-1.214 3.61-2.322 4.6-1.335.276.276.73.168.95.521.156.248.598.542.816.769.76.787 1.524 1.446 2.096 2.397 1.126 1.873-.214 4.306-1.076 5.904-.878 1.628-2.368 3.127-3.614 4.479-.847.919-1.943 2.475-3.206 2.896-1.217.405-3.506-.231-4.531-.882-1.438-.914-1.337-1.861-1.337-3.461 0-1.625-.107-3.665 1.02-4.977Z"/><path fill="#EB5757" d="M74.88 279.357c4.67-2.46 9.801-.656 12.44 3.664.624.312.407 1.71.407 2.341 0 .366-.034 1.621-.249 1.889-.226.282-.049.55-.204.86-.148.295-.46.505-.566.825-.255.764-1.27 1.461-1.835 2.025-1.056 1.054-2.764 1.538-4.079 2.194-1.211.605-4.168.556-5.347-.158-2.285-1.385-4.237-3.561-4.237-6.357 0-1.098-.24-2.943.306-3.924.744-1.338 1.999-2.64 3.364-3.359"/><path fill="#EB5757" d="m87.32 283.021-1.28.782c.146.24.358.434.61.56zm-12.44-3.664-.699-1.328zm-3.364 3.359 1.31.729zm3.931 10.281-.778 1.283zm5.347.158-.67-1.342zm4.079-2.194-1.06-1.062zm1.835-2.025-1.423-.475zm.566-.825 1.341.671zm.204-.86 1.17.938zm1.122-5.012c-3.003-4.917-8.971-7.08-14.419-4.21l1.399 2.655c3.89-2.05 8.186-.604 10.46 3.119zm-14.419-4.21c-1.652.871-3.107 2.395-3.976 3.957l2.622 1.459c.619-1.113 1.673-2.192 2.753-2.761zm-3.976 3.957c-.472.848-.538 1.895-.547 2.631-.004.403.01.802.024 1.146.015.362.028.642.028.877h3c0-.313-.017-.675-.03-.999a19 19 0 0 1-.022-.99c.008-.706.095-1.073.169-1.206zm-.495 4.654c0 3.556 2.473 6.132 4.96 7.64l1.555-2.566c-2.084-1.263-3.515-3.039-3.515-5.074zm4.96 7.64c.934.566 2.294.763 3.401.79 1.115.028 2.456-.105 3.393-.573l-1.34-2.684c-.273.137-1.017.282-1.978.258-.97-.024-1.677-.209-1.921-.357zm6.794.217c.284-.142.6-.279.962-.433.349-.149.746-.316 1.134-.495.768-.356 1.654-.829 2.372-1.547l-2.12-2.123c-.336.337-.832.633-1.512.947-.335.155-.677.298-1.05.458-.362.154-.753.323-1.126.509zm4.468-2.475c.101-.1.233-.218.419-.38.172-.151.386-.337.591-.534.373-.355.935-.938 1.189-1.697l-2.846-.95c.007-.02-.003.018-.08.119a3 3 0 0 1-.334.358c-.15.144-.312.285-.498.448-.172.151-.379.332-.56.513zm2.199-2.611c-.048.142-.122.204-.011.073.032-.037.124-.144.2-.242.086-.109.198-.264.296-.46l-2.683-1.343c.024-.048.041-.066.023-.043-.027.035-.047.056-.124.148-.11.129-.393.455-.547.917zm.484-.629a2.2 2.2 0 0 0 .214-.719c.012-.095.016-.179.018-.237l.001-.075.001-.045c.001-.051.004.02-.022.122a1 1 0 0 1-.178.361l-2.341-1.876c-.2.249-.323.516-.39.78a2.4 2.4 0 0 0-.068.542c-.006.247-.02.012.083-.196zm.034-.593c.18-.224.27-.454.316-.58a3 3 0 0 0 .111-.41c.05-.241.081-.498.101-.721.04-.45.05-.903.05-1.116h-3c0 .153-.007.511-.038.846q-.023.258-.05.382c-.009.041-.011.042-.002.018a1 1 0 0 1 .17-.295zm.578-2.827c0-.111.01-.245.023-.518.01-.235.022-.539.006-.849a3.7 3.7 0 0 0-.2-1.08c-.144-.395-.447-.927-1.066-1.236l-1.34 2.684a.83.83 0 0 1-.412-.419c-.007-.018.013.035.022.204q.01.235-.007.556c-.008.176-.026.454-.026.658zm41.324-47.695c.992-.227.684-.239 1.695-.239 1.322 0 2.57-.325 3.448-.056.723.223 1.474.061 2.096.543.624.485.883 1.097 1.427 1.64 1.205 1.203.927 4.641.702 6.21-.264 1.848-1.842 3.643-3.251 4.727-3.861 2.975-10.589 1.301-12.835-2.997-1.268-2.424 1.067-6.373 3.036-7.725 1.131-.776 2.301-1.788 3.682-2.103"/><path fill="#EB5757" d="M132.246 237.428v1.5zm-1.695.239.333 1.462zm-3.682 2.103.849 1.237zm-3.036 7.725 1.329-.695zm12.835 2.997-.915-1.188zm3.251-4.727-1.484-.213zm-.702-6.21-1.06 1.062zm-1.427-1.64-.92 1.185zm-2.096-.543.44-1.433zm-3.448-1.444c-.456 0-.785-.002-1.12.058-.156.028-.305.068-.412.096-.12.032-.271.07-.497.122l.667 2.925c.27-.062.453-.109.586-.144.146-.038.17-.043.187-.046.012-.002.035-.011.589-.011zm-2.029.276c-.933.213-1.74.648-2.411 1.079-.605.389-1.347.949-1.786 1.251l1.698 2.473c.691-.475 1.1-.809 1.709-1.199.541-.348 1.01-.577 1.457-.679zm-4.197 2.33c-1.253.86-2.487 2.42-3.246 4.069-.737 1.604-1.23 3.752-.271 5.587l2.659-1.39c-.308-.589-.267-1.628.338-2.943.584-1.269 1.502-2.359 2.218-2.85zm-3.517 9.656c1.367 2.616 4.025 4.329 6.793 4.99 2.769.661 5.912.33 8.287-1.499l-1.83-2.377c-1.486 1.145-3.638 1.465-5.76.958-2.123-.507-3.952-1.78-4.831-3.462zm15.08 3.491a12.3 12.3 0 0 0 2.345-2.373c.691-.933 1.297-2.075 1.476-3.331l-2.969-.425c-.085.593-.401 1.272-.918 1.97a9.4 9.4 0 0 1-1.764 1.782zm3.821-5.704c.12-.833.257-2.186.199-3.52-.03-.668-.11-1.378-.289-2.037-.174-.642-.475-1.365-1.037-1.926l-2.12 2.123c.041.04.156.198.262.588.101.372.163.845.187 1.384.047 1.077-.066 2.227-.171 2.963zm-1.127-7.483c-.175-.175-.293-.346-.543-.68-.229-.306-.548-.713-1.024-1.083l-1.84 2.369c.147.115.27.255.463.512.171.229.455.636.824 1.005zm-1.567-1.763c-.627-.487-1.29-.612-1.731-.671-.535-.072-.641-.059-.845-.121l-.881 2.867c.297.091.573.136.793.165.109.014.216.025.302.035.092.01.165.018.233.027.137.018.207.035.248.049.032.011.039.017.041.018zm-2.576-.792c-.743-.229-1.539-.182-2.118-.135-.676.055-1.19.124-1.77.124v3c.742 0 1.513-.093 2.012-.134.594-.048.862-.029.995.012z"/><path fill="#EB5757" stroke="#EB5757" stroke-linecap="round" stroke-width="3" d="M132.59 282.568c1.1.55 2.318 1.716 3.058 2.692 1.182 1.769.816 4.219.816 6.311 0 2.6-1.147 4.607-2.957 6.413-1.282 1.28-3.987 1.419-5.698 1.109-1.679-.305-3.913-.556-5.257-1.776-1.724-1.565-3.158-2.93-2.56-5.542.285-1.246.338-2.011 1.28-2.952.755-.754 1.978-1.831 2.345-2.839.361-.99 1.654-2.213 2.426-2.944l.021-.019c.77-.729 2.919-2.114 3.977-1.527.761.422 1.742.671 2.549 1.074Zm40.885-21.329c2.299.706 3.161 2.71 3.161 4.886 0 3.503.036 6.607-3.308 8.754-1.66 1.065-3.296.441-4.94-.305-1.628-.74-3.311-1.667-4.599-2.952-3.294-3.289-.021-9.171 3.217-11.039 2.037-1.175 4.498.05 6.469.656Zm23.757-41.986c1.603.366 2.141.907 2.886 2.335 0 .696 1.192.983 1.192 1.68v2.138c0 1.217-.327 2.809-1.121 3.777-.589.719-.955 1.115-1.733 1.719-.728.565-2.234 1.13-3.161 1.211-2.334.202-4.56-.101-6.809-.6-1.754-.389-2.516-2.881-2.22-4.433.507-2.659 2.51-4.968 4.531-6.606 2.062-1.67 3.98-1.781 6.435-1.221Z"/><path fill="#EB5757" stroke="#EB5757" stroke-linecap="round" stroke-linejoin="round" stroke-width="3" d="M195.703 209.006c-2.126-1.65-4.65-2.877-5.722-5.458 0 0 6.17 0 11.459 1.32s9.255 3.52 9.255 3.52c0 1.333-1.576 3.378-2.972 3.378h-2.742c-.998 0-1.94-.37-2.9-.407-2.129-.082-4.679-1.033-6.378-2.353"/><path fill="#EB5757" stroke="#EB5757" stroke-linecap="round" stroke-width="3" d="M197.594 282.456c3.868-3.862 8.966-7.171 14.524-7.171 1.459.486 1.631 3.02 1.631 4.264 0 2.162-.555 3.768-1.529 5.712-2.226 4.444-8.008 7.405-12.96 6.91-1.313-.131-2.937-.532-3.954-1.402-.618-.528-.317-1.944-.317-2.658 0-.964-.061-2.536.51-3.359.634-.914 1.32-1.522 2.095-2.296Z"/><path fill="#FFB400" d="M266.127 354.436c-2.219-2.215-6.034-4.683-9.109-5.236 1.41 6.258 3.122 5.787-5.214 5.787-4.576 0 2.791 4.323 8.694 4.323.98 1.196-8.36 5.39-8.985 5.598-3.496 1.163 19.031 8.595 19.031-1.929 0-3.999-1.639-5.769-4.417-8.543"/><path fill="#FFB400" d="m257.018 349.2.266-1.476a1.5 1.5 0 0 0-1.729 1.806zm9.109 5.236-1.06 1.062zm-5.629 4.874 1.16-.951a1.5 1.5 0 0 0-1.16-.549zm-8.985 5.598-.474-1.423zm5.24-14.231c1.293.232 2.84.893 4.373 1.806 1.519.906 2.928 2.003 3.941 3.015l2.12-2.123c-1.205-1.204-2.814-2.449-4.525-3.469-1.699-1.012-3.597-1.862-5.378-2.182zm8.314 4.821c1.411 1.408 2.373 2.413 3.017 3.509.605 1.032.96 2.206.96 3.972h3c0-2.234-.465-3.944-1.373-5.49-.87-1.482-2.117-2.749-3.484-4.114zm-13.263.989c2.027 0 3.567.03 4.611-.026.525-.029 1.043-.083 1.495-.215.462-.135 1.028-.402 1.409-.981.373-.566.397-1.174.362-1.605-.035-.429-.148-.887-.263-1.311-.251-.915-.593-1.955-.936-3.479l-2.927.66c.362 1.605.762 2.853.969 3.61.112.412.157.636.167.763.01.124-.032-.054.122-.288.162-.246.356-.278.255-.249-.111.033-.35.074-.815.099-.936.051-2.307.022-4.449.022zm8.694 1.323c-2.653 0-5.728-.993-7.566-1.982a6.7 6.7 0 0 1-.999-.637c-.271-.221-.187-.234-.112-.016.055.16.105.465-.042.806a1.06 1.06 0 0 1-.459.52c-.115.06-.04-.014.484-.014v-3c-.619 0-1.315.062-1.88.358a1.95 1.95 0 0 0-.899.946 1.87 1.87 0 0 0-.041 1.359c.214.623.706 1.083 1.058 1.369.408.332.915.652 1.468.95 2.177 1.172 5.738 2.341 8.988 2.341zm-8.511 8.521c.255-.085 1.043-.429 1.964-.857a70 70 0 0 0 3.363-1.672c1.16-.619 2.34-1.307 3.185-1.945.405-.306.843-.681 1.143-1.104.15-.212.342-.54.406-.959a1.82 1.82 0 0 0-.39-1.435l-2.321 1.902a1.2 1.2 0 0 1-.255-.92 1 1 0 0 1 .074-.253l.028-.053.011-.017-.032.038a2 2 0 0 1-.101.101 5 5 0 0 1-.371.306c-.65.491-1.66 1.09-2.791 1.694a68 68 0 0 1-4.382 2.125 15 15 0 0 1-.479.203zm17.057-3.352c0 1.033-.271 1.738-.656 2.244-.395.521-.997.944-1.832 1.255-1.717.638-4.134.693-6.642.361-2.476-.328-4.83-1.004-6.31-1.64a8 8 0 0 1-.876-.43 3 3 0 0 1-.246-.159c-.059-.043-.078-.063-.071-.056.001 0 .069.07.133.211.069.153.147.431.067.77-.08.343-.277.561-.415.672a1 1 0 0 1-.209.124l-.948-2.846c-.324.108-1.133.444-1.349 1.367-.211.904.342 1.555.553 1.776.51.532 1.355.974 2.177 1.328 1.759.755 4.382 1.497 7.1 1.857 2.688.356 5.684.368 8.081-.523 1.222-.455 2.353-1.168 3.176-2.252.833-1.096 1.267-2.461 1.267-4.059z"/><path fill="#EB5757" stroke="#EB5757" stroke-linecap="round" stroke-width="3" d="M280.879 337.901c-2.161 0-3.796.741-5.582 1.929-2.745 1.827 1.68 4.179 3.098 4.823 5.62 2.55 14.674 1.995 17.543-4.271 1.899-4.148-1.25-8.559-4.539-10.748-1.663-1.106-11.73-7.134-13.372-3.445-1.075 2.415 3.805 5.925 5.766 5.925-1.562 0-10.618-.847-8.496 2.756 1.06 1.798 7.718 3.031 5.582 3.031Z"/><path fill="#FFB400" stroke="#FFB400" stroke-linecap="round" stroke-width="3" d="M345.055 347.807c5.241.654 10.858-.492 15.135-3.567 3.246-2.333 1.753-10.835-1.533-12.891s-19.077-6.486-19.077-1.837c0 1.828 8.301 4.871 9.631 5.083-2.942 0-5.766.308-8.765 1.306s3.966 2.798 9.853 4.757c1.032.343-2.225 1.102-2.745 1.102-.996 0-8.746.978-9.062 2.082-.671 2.344 5.303 3.808 6.563 3.965Z"/><path fill="#EB5757" stroke="#EB5757" stroke-linecap="round" stroke-width="3" d="M324.507 364.787c1.103-.857 3.775-.705 5.106-.705 4.564 0-9.177-4.293-9.177-6.971 0-5.906 41.343 8.414 19.129 18.117-4.821 2.106-9.629 2.062-14.782 1.271-2.02-.311-5.072-1.059-4.003-3.46.61-1.37 3.974-2.894 5.459-2.894.962 0 6.718-.661 5.306-.827-2.088-.245-4.379-1.17-6.486-1.638-2.638-.585-2.594-1.308-.552-2.893Z"/><path fill="#27AE60" stroke="#27AE60" stroke-linecap="round" stroke-width="3" d="M80.12 85.265c-2.385-1.36-4.806 0-7.342 0 0 1.854-.217 5.58-.312 7.469-.136 2.725-.623 5.437-.623 8.23 0 1.826-1.345 3.389-1.247 5.152.116 2.079 4.634-.478 5.282-.761 5.292-2.311 6.563-9.35 6.563-14.488 0-2.242-.213-4.4-2.32-5.602Zm-2.354 60.444c-2.164-1.08-6.09-.381-8.416-.381-.802 2.401-.624 5.17-.624 7.781v6.846c0 1.598-1.166 4.665-.385 6.069.644 1.156.006 6.202 2.805 4.028 1.844-1.431 4.068-2.797 5.512-4.651 1.411-1.812 2.452-4.024 3.913-5.757 1.743-2.066 2.538-5.226 1.628-7.849-.69-1.992-2.435-5.089-4.433-6.086Z"/><path fill="#27AE60" d="M89.143 201.394c-1.702 1.7-3.268 3.084-5.431 4.19 1.258-.159 5.675-1.86 6.522-2.236 1.146-.508 2.548-.331 3.758-.709 2.644-.825 5.38-1.354 8.105-1.694 3.217-.402 6.061-1.573 9.334-1.573 1.543 0 3.908.409 5.403-.018.491-.14-1.432-2.51-1.593-2.783-2.737-4.646-8.478-6.705-13.456-4.53-3.284 1.435-6.649 3.543-9.195 6.086-1.137 1.135-2.308 2.131-3.447 3.267"/><path stroke="#27AE60" stroke-linecap="round" stroke-width="3" d="M83.688 205.596c2.175-1.108 3.747-2.496 5.455-4.202 1.139-1.136 2.31-2.132 3.447-3.267 2.546-2.543 5.91-4.651 9.195-6.086 4.978-2.175 10.719-.116 13.456 4.53.161.273 2.084 2.643 1.593 2.783-1.495.427-3.86.018-5.403.018-3.273 0-6.117 1.171-9.334 1.573-2.725.34-5.461.869-8.105 1.694-1.21.378-2.612.201-3.758.709-.89.395-5.706 2.248-6.684 2.248"/><path fill="#27AE60" stroke="#27AE60" stroke-linecap="round" stroke-width="3" d="M161.15 193.098c-2.705 1.501-3.961 4.47-6.39 6.38l25.085.99c0-1.891-1.315-4.6-2.503-6.125-1.888-2.423-3.937-2.956-6.927-2.956-3.2 0-6.402.124-9.265 1.711Z"/><path stroke="#04294F" stroke-linecap="round" stroke-width="3" d="M60.858 88.21c-1.78 1.741-3.515 3.459-5.374 5.108-1.822 1.617-3.695 2.858-5.754 4.173-3.77 2.409-7.082 5.184-11.59 6.084"/><path stroke="#04294F" stroke-linecap="round" stroke-linejoin="round" stroke-width="3" d="M40.137 226.402c0 28.161-7.978 62.921 13.429 80.522 7.492 6.16 22.937 8.35 29.968 4.84"/><path stroke="#04294F" stroke-linecap="round" stroke-width="3" d="M196.457 309.563c-2.265.416-4.762 1.45-6.88 2.39-3.352 1.487-7.257 2.137-10.769 3.285-5.34 1.745-11.155 2.09-16.751 2.09-2.121 0-4.89.065-6.88-.597"/><path stroke="#04294F" stroke-linecap="round" stroke-linejoin="round" stroke-width="3" d="M74.073 50.4c0 26.4-5.289 76.826-5.289 91.962 0 18.92 1.323 57.641 4.848 62.041s2.204 2.2 12.781 0 47.158-9.241 102.249-2.2"/></svg>