<svg xmlns="http://www.w3.org/2000/svg" width="207" height="387" fill="none"><path fill="#FFB400" stroke="#FFB400" stroke-width=".566" d="M25.126 243.693c4.531 8.155 12.46 11.893 15.858 12.743l-2.831 6.23c-1.605-.472-6.57-3.228-13.593-10.478-7.023-7.249-7.457-19.067-6.796-24.07.566 1.793 2.831 7.419 7.362 15.575Z"/><path fill="#FFB400" d="M31.637 309.957c2.945-5.663 5.947-15.575 7.08-19.822l5.663 3.964c-1.888 3.398-6.683 13.31-10.76 25.77-4.078 12.46-10.195 39.173-12.744 50.972-2.17 1.228-6.513 2.492-6.513-2.265 0-5.947 13.593-51.539 17.274-58.619m20.673 21.522c.226-9.741-1.228-25.014-1.983-31.433l10.478-2.832c-.283 1.605-1.076 6.4-1.983 12.743-1.132 7.929 0 18.407 0 27.469 0 7.249 1.322 27.752 1.983 37.097l-5.947 2.265c-.944-11.044-2.775-35.567-2.549-45.309m76.743-11.61c3.171-9.289 2.643-23.693 1.982-29.734l8.495-6.23v13.309c0 8.496-3.398 22.655-5.947 36.247-2.039 10.875-10.289 28.696-14.159 36.248l-5.947-2.266c.661 0 2.436-1.132 4.248-5.663 2.266-5.664 7.363-30.301 11.328-41.911m21.804 9.062c3.625-21.296-.188-46.631-2.548-56.637l2.548-29.168c2.171 6.325 7.193 26.563 9.912 56.92 2.718 30.357-8.684 61.167-14.726 72.778l-7.929-3.115c2.738-4.72 9.119-19.483 12.743-40.778"/><path stroke="#FFB400" stroke-width=".566" d="M31.637 309.957c2.945-5.663 5.947-15.575 7.08-19.822l5.663 3.964c-1.888 3.398-6.683 13.31-10.76 25.77-4.078 12.46-10.195 39.173-12.744 50.972-2.17 1.228-6.513 2.492-6.513-2.265 0-5.947 13.593-51.539 17.274-58.619Zm20.673 21.522c.226-9.741-1.228-25.014-1.983-31.433l10.478-2.832c-.283 1.605-1.076 6.4-1.983 12.743-1.132 7.929 0 18.407 0 27.469 0 7.249 1.322 27.752 1.983 37.097l-5.947 2.265c-.944-11.044-2.775-35.567-2.549-45.309Zm76.742-11.61c3.171-9.289 2.643-23.693 1.982-29.734l8.495-6.23v13.309c0 8.496-3.398 22.655-5.947 36.247-2.039 10.875-10.289 28.696-14.159 36.248l-5.947-2.266c.661 0 2.436-1.132 4.248-5.663 2.266-5.664 7.363-30.301 11.328-41.911Zm21.804 9.062c3.625-21.296-.188-46.631-2.548-56.637l2.548-29.168c2.171 6.325 7.193 26.563 9.912 56.92 2.718 30.357-8.684 61.167-14.726 72.778l-7.929-3.115c2.738-4.72 9.119-19.483 12.743-40.778Z"/><path fill="#FFB400" stroke="#FFB400" stroke-width=".566" d="M152.274 152.225c.226-20.389 3.115-38.89 4.531-45.592l-29.168-28.318c.944 10.477 2.945 33.868 3.398 43.609.567 12.177-3.115 50.407-11.893 77.309s-4.815 28.601-42.195 36.53-42.477 26.62-41.91 43.327c.566 16.708 17.84 30.301 44.46 28.885 26.618-1.416 48.706-7.08 63.998-25.203 15.292-18.124 9.628-30.867 5.947-62.584-3.681-31.716 2.549-42.477 2.832-67.963Z"/><path fill="#FFB400" d="M158.785 39.236c-6.117 6.116-7.268 13.12-7.08 15.858l5.098 2.832c-.944-.944-1.076-3.908 5.946-8.213 8.779-5.38 7.93-7.646 7.646-9.911-.283-2.266-3.964-8.212-11.61-.566m-26.053-28.885c2.171 3.02 7.023 10.818 9.062 17.84 2.008 6.916 2.35 18.791 2.27 24.11l-3.119.244c.283-2.832.453-10.874-1.133-20.389s-6.891-17.935-9.345-20.955zm-3.115 46.725c-2.171-3.02-8.778-13.31-11.61-21.239-2.422-6.78-5.178-13.087-5.097-18.406l2.548-.85c-.283 2.832 2.266 10.195 4.814 17.274s9.156 18.218 11.611 21.239zm-23.221 2.266c6.797-.454 14.915 3.964 18.124 6.23l.566 5.097c-2.171-.85-7.249-2.436-10.194-1.983-3.682.567-13.593 1.983-15.575-.566s-1.416-8.212 7.079-8.779"/><path stroke="#FFB400" stroke-width=".566" d="m144.06 52.545.004-.244m0 0c.08-5.319-.262-17.194-2.27-24.11-2.039-7.022-6.891-14.82-9.062-17.84l-2.265.85c2.454 3.02 7.759 11.44 9.345 20.955s1.416 17.557 1.133 20.39zm-31.154-34.87c-.002.08.566-.045 0 0Zm0 0c-.081 5.319 2.675 11.625 5.097 18.406 2.832 7.93 9.439 18.218 11.61 21.24l2.266-1.983c-2.455-3.02-9.062-14.16-11.611-21.239-2.548-7.08-5.097-14.442-4.814-17.274zm38.795 37.663c-.188-2.738.963-9.742 7.08-15.858 7.646-7.646 11.327-1.7 11.61.566.284 2.265 1.133 4.53-7.646 9.911-7.022 4.305-6.89 7.269-5.946 8.213zM124.52 65.572c-3.209-2.266-11.327-6.684-18.124-6.23-8.495.566-9.061 6.23-7.08 8.778 1.983 2.549 11.894 1.133 15.576.566 2.945-.453 8.023 1.133 10.194 1.983z"/><path fill="#FFB400" stroke="#FFB400" stroke-width=".566" d="M155.104 56.793c5.437 3.625 26.619 19.256 36.531 26.619l-20.389 12.46-13.876 11.893c-4.72-1.982-15.745-7.985-22.088-16.14-7.929-10.195-16.425-26.337-6.514-34.266s19.54-5.097 26.336-.566Z"/><path fill="#FFB400" stroke="#FFB400" stroke-width=".566" d="M161.618 94.456c7.929-10.194 22.56-11.233 28.884-10.478 1.888-1.321 6.91-3.001 11.894.85 6.23 4.814 4.814 15.858-7.646 27.469-12.46 11.61-24.07 9.911-29.168 7.929-5.097-1.983-13.875-13.027-3.964-25.77Z"/><path fill="#fff" stroke="#fff" stroke-linejoin="round" stroke-width=".566" d="M183.706 113.712c7.702-.906 10.95-9.628 11.61-13.876-1.038 1.511-4.644 5.154-10.76 7.646-6.117 2.492-12.744-1.038-15.292-3.115 1.604 3.493 6.739 10.252 14.442 9.345Z"/><path fill="#222" stroke="#222" stroke-linejoin="round" stroke-width=".566" d="M185.688 109.182c1.359-.453 3.776.377 4.814.849-.755.944-3.058 3.002-6.23 3.682-3.172.679-6.23-.284-7.363-.85.378-.566 1.473-1.926 2.832-2.832s3.209-.189 3.965.283c.094-.188.623-.679 1.982-1.132Z"/><path fill="#F04E23" d="M166.999 73.784c-2.719-1.812-1.322-6.796-.283-9.062l11.893 8.779c-2.737.85-8.892 2.095-11.61.283m-28.885 12.46c1.133-1.812 5.003 0 6.797 1.133 1.227.85 3.624 3.171 3.398 5.663-.283 3.115-5.097 2.832-7.929.85s-3.682-5.38-2.266-7.646m-2.548 21.522c.226-2.945-3.304-4.814-5.098-5.381l.567 10.195c1.416-.378 4.304-1.869 4.531-4.814m12.46 13.026c0-2.718 4.153-1.51 6.23-.566-.095 3.398-.567 10.081-1.699 9.628-1.416-.566-4.531-5.664-4.531-9.062m-12.46 1.133c1.812-2.266 6.655 1.699 7.362 4.531.284 1.133.567 1.812.567 4.531 0 3.398-1.416 8.778-5.381 7.079-3.171-1.359-2.076-6.796-1.132-9.345-1.227-1.321-3.229-4.531-1.416-6.796m9.911 23.787c3.398-1.133 5.947.472 6.796 1.416v7.929c-.943-1.51-2.888-3.795-3.115-.849-.283 3.681-2.831 8.495-4.814 6.513-1.982-1.983 1.133-4.531 1.133-6.797s-4.248-6.796 0-8.212m-15.858 10.761c1.812-2.265 5.664 1.133 7.079 3.681s1.53 9.345-1.415 9.345c-3.682 0-3.399-4.247-3.965-5.38s-3.965-4.814-1.699-7.646m11.61 20.672c4.078-1.359 5.475.567 5.664 1.699.283 2.832-2.549 3.115-3.115 3.965s0 1.699 0 3.681c0 1.983-1.133 3.115-4.531 3.398-3.398.284-3.115-3.115-1.982-4.247 1.133-1.133 1.133-3.115.849-3.682-.283-.566-1.982-3.115 3.115-4.814m-13.592 10.761c1.359-3.398-2.077-4.814-3.965-5.097l-1.699 7.079c1.322.756 4.304 1.416 5.664-1.982m1.982 20.956c-1.812-3.399-1.982-7.929.566-9.629s5.494.85 8.213 4.248c3.398 4.248.849 7.929 0 9.062-.85 1.133-6.514.566-8.779-3.681m-16.425 27.468c8.836-5.437 4.626-16.802 1.416-21.805-.472 1.888-2.322 6.627-5.947 10.478s-10.005 5.758-12.743 6.23c-.094.472-.226 1.642 0 2.549.284 1.132 6.23 9.345 17.274 2.548m16.991-7.646c0-2.492 4.531-3.115 7.08 0 2.548 3.115-.154 8.465-4.248 7.646-4.248-.849-2.832-4.531-2.832-7.646m-2.548 24.637c5.21-4.078 9.533-.566 11.044 1.699.566.755 1.359 3.285 0 7.363-1.699 5.097-9.062 4.814-11.611 3.681-2.548-1.132-5.947-7.646.567-12.743m-29.168 3.398c3.172 1.36 8.307.944 10.478.567.755 0 2.492 1.076 3.398 5.38 1.133 5.381-3.398 7.08-6.796 7.646s-7.646-4.248-10.478-1.133-7.646 3.115-13.027 0-2.831-6.796-.566-9.628 13.026-4.531 16.991-2.832m-18.973-6.513c6.57-2.718 4.059-11.327 1.982-15.292-2.549.567-7.08 1.416-10.478 2.266-3.398.849-9.817 3.209-13.31 4.531-.471 3.209-.566 9.911 2.833 11.044 4.247 1.416 5.946-3.682 7.08-3.965 1.132-.283 3.68 4.814 11.893 1.416m-29.168 16.425c0-2.492 3.398-2.926 5.097-2.832.756 1.133 2.266 3.908 2.266 5.947 0 2.548-2.266 3.398-4.814 2.832s-2.549-2.832-2.549-5.947"/><path stroke="#F04E23" stroke-linejoin="round" stroke-width="1.699" d="M166.999 73.784c-2.719-1.812-1.322-6.796-.283-9.062l11.893 8.779c-2.737.85-8.892 2.095-11.61.283Zm-28.885 12.46c1.133-1.812 5.003 0 6.797 1.133 1.227.85 3.624 3.171 3.398 5.663-.283 3.115-5.097 2.832-7.929.85s-3.682-5.38-2.266-7.646Zm-2.548 21.522c.226-2.945-3.304-4.814-5.098-5.381l.567 10.195c1.416-.378 4.304-1.869 4.531-4.814Zm12.46 13.026c0-2.718 4.153-1.51 6.23-.566-.095 3.398-.567 10.081-1.699 9.628-1.416-.566-4.531-5.664-4.531-9.062Zm-12.46 1.133c1.812-2.266 6.655 1.699 7.362 4.531.284 1.133.567 1.812.567 4.531 0 3.398-1.416 8.778-5.381 7.079-3.171-1.359-2.076-6.796-1.132-9.345-1.227-1.321-3.229-4.531-1.416-6.796Zm9.911 23.787c3.398-1.133 5.947.472 6.796 1.416v7.929c-.943-1.51-2.888-3.795-3.115-.849-.283 3.681-2.831 8.495-4.814 6.513-1.982-1.983 1.133-4.531 1.133-6.797s-4.248-6.796 0-8.212Zm-15.858 10.761c1.812-2.265 5.664 1.133 7.079 3.681s1.53 9.345-1.415 9.345c-3.682 0-3.399-4.247-3.965-5.38s-3.965-4.814-1.699-7.646Zm11.61 20.672c4.078-1.359 5.475.567 5.664 1.699.283 2.832-2.549 3.115-3.115 3.965s0 1.699 0 3.681c0 1.983-1.133 3.115-4.531 3.398-3.398.284-3.115-3.115-1.982-4.247 1.133-1.133 1.133-3.115.849-3.682-.283-.566-1.982-3.115 3.115-4.814Zm-13.592 10.761c1.359-3.398-2.077-4.814-3.965-5.097l-1.699 7.079c1.322.756 4.304 1.416 5.664-1.982Zm1.982 20.956c-1.812-3.399-1.982-7.929.566-9.629s5.494.85 8.213 4.248c3.398 4.248.849 7.929 0 9.062-.85 1.133-6.514.566-8.779-3.681Zm-16.425 27.468c8.836-5.437 4.626-16.802 1.416-21.805-.472 1.888-2.322 6.627-5.947 10.478s-10.005 5.758-12.743 6.23c-.094.472-.226 1.642 0 2.549.284 1.132 6.23 9.345 17.274 2.548Zm16.991-7.646c0-2.492 4.531-3.115 7.08 0 2.548 3.115-.154 8.465-4.248 7.646-4.248-.849-2.832-4.531-2.832-7.646Zm-2.548 24.637c5.21-4.078 9.533-.566 11.044 1.699.566.755 1.359 3.285 0 7.363-1.699 5.097-9.062 4.814-11.611 3.681-2.548-1.132-5.947-7.646.567-12.743Zm-29.168 3.398c3.172 1.36 8.307.944 10.478.567.755 0 2.492 1.076 3.398 5.38 1.133 5.381-3.398 7.08-6.796 7.646s-7.646-4.248-10.478-1.133-7.646 3.115-13.027 0-2.831-6.796-.566-9.628 13.026-4.531 16.991-2.832Zm-18.973-6.513c6.57-2.718 4.059-11.327 1.982-15.292-2.549.567-7.08 1.416-10.478 2.266-3.398.849-9.817 3.209-13.31 4.531-.471 3.209-.566 9.911 2.833 11.044 4.247 1.416 5.946-3.682 7.08-3.965 1.132-.283 3.68 4.814 11.893 1.416Zm-29.168 16.425c0-2.492 3.398-2.926 5.097-2.832.756 1.133 2.266 3.908 2.266 5.947 0 2.548-2.266 3.398-4.814 2.832s-2.549-2.832-2.549-5.947Z"/><path fill="#C07A5F" d="M126.222 7.803c-1.586-3.172-.283-5.475.566-6.23.472-.755 2.152-1.36 5.097 2.265s1.228 6.23 0 7.08c-1.227.283-4.077.057-5.663-3.115m-16.141 0c3.851-1.133 5.191 1.793 5.38 3.398.378 1.7.623 5.267-1.416 5.947s-3.87-.85-4.531-1.7c-1.416-2.076-3.285-6.512.567-7.645M20.384 232.792l-.072.14-3.115-8.212-.566 11.327-15.575-9.062c-.378-3.303 1.019-11.327 9.628-16.99 10.76-7.08 18.123 1.699 20.672 5.38-3.369 2.47-8.222 12.01-10.972 17.417M139.531 367.16c.907-.226 5.475 2.927 7.646 4.531-1.132 1.983-2.265 11.611-4.247 11.611-1.983 0-1.983-1.982-2.549-2.266-.566-.283-.566 2.549-3.115.85s1.133-14.442 2.265-14.726m-22.654.567c2.265 1.133 3.587.283 3.964-.283-.188 1.416-.736 5.21-1.415 9.061-.85 4.815-3.399 2.549-3.965 1.983-.566-.567-.85-1.699-2.265-1.133s-2.266-1.982-1.7-3.965.85-6.796 1.7-7.645c.849-.85.849.566 3.681 1.982m-55.22 17.557c2.718-.226.943-7.457-.284-11.044l-7.08-.85c-.188.284-.566 1.643-.566 4.815 0 3.964 1.7 6.796 2.832 7.079 1.133.283 1.133-1.416 1.983-1.416.849 0-.284 1.699 3.114 1.416m-48.99-7.363c-1.36-3.398.378-7.079 1.416-8.495.85.377 2.945 1.246 4.53 1.699 1.587.453 2.36-1.51 2.55-2.549.094.189.453 1.246 1.132 3.965.85 3.398 1.133 10.194-.566 10.761-1.7.566-2.549-2.832-3.398-2.549s-1.133 1.699-1.7 1.982c-.566.284-2.265-.566-3.964-4.814M160.487 46.032c-2.719 1.813-5.003 6.986-5.947 9.629.755 1.038 1.982 2.208 1.982.85 0-1.7 2.549-3.682 3.965-4.815 1.133-.906 5.569-4.153 7.646-5.664-1.416-.755-4.928-1.812-7.646 0m-54.371 18.974c3.625 0 8.307 2.265 10.195 3.398-2.549.566-8.156 1.699-10.195 1.699s-5.758-1.888-7.363-2.832c.944-.755 3.738-2.265 7.363-2.265"/><path stroke="#C07A5F" stroke-linejoin="round" stroke-width="1.699" d="M126.222 7.803c-1.586-3.172-.283-5.475.566-6.23.472-.755 2.152-1.36 5.097 2.265s1.228 6.23 0 7.08c-1.227.283-4.077.057-5.663-3.115Zm-16.141 0c3.851-1.133 5.191 1.793 5.38 3.398.378 1.7.623 5.267-1.416 5.947s-3.87-.85-4.531-1.7c-1.416-2.076-3.285-6.512.567-7.645ZM20.384 232.792l-.072.14-3.115-8.212-.566 11.327-15.575-9.062c-.378-3.303 1.019-11.327 9.628-16.99 10.76-7.08 18.123 1.699 20.672 5.38-3.369 2.47-8.222 12.01-10.972 17.417ZM139.531 367.16c.907-.226 5.475 2.927 7.646 4.531-1.132 1.983-2.265 11.611-4.247 11.611-1.983 0-1.983-1.982-2.549-2.266-.566-.283-.566 2.549-3.115.85s1.133-14.442 2.265-14.726Zm-22.654.567c2.265 1.133 3.587.283 3.964-.283-.188 1.416-.736 5.21-1.415 9.061-.85 4.815-3.399 2.549-3.965 1.983-.566-.567-.85-1.699-2.265-1.133s-2.266-1.982-1.7-3.965.85-6.796 1.7-7.645c.849-.85.849.566 3.681 1.982Zm-55.22 17.557c2.718-.226.943-7.457-.284-11.044l-7.08-.85c-.188.284-.566 1.643-.566 4.815 0 3.964 1.7 6.796 2.832 7.079 1.133.283 1.133-1.416 1.983-1.416.849 0-.284 1.699 3.114 1.416Zm-48.991-7.363c-1.36-3.398.378-7.079 1.416-8.495.85.377 2.945 1.246 4.53 1.699 1.587.453 2.36-1.51 2.55-2.549.094.189.453 1.246 1.132 3.965.85 3.398 1.133 10.194-.566 10.761-1.7.566-2.549-2.832-3.398-2.549s-1.133 1.699-1.7 1.982c-.566.284-2.265-.566-3.964-4.814ZM160.487 46.032c-2.719 1.813-5.003 6.986-5.947 9.629.755 1.038 1.982 2.208 1.982.85 0-1.7 2.549-3.682 3.965-4.815 1.133-.906 5.569-4.153 7.646-5.664-1.416-.755-4.928-1.812-7.646 0Zm-54.371 18.974c3.625 0 8.307 2.265 10.195 3.398-2.549.566-8.156 1.699-10.195 1.699s-5.758-1.888-7.363-2.832c.944-.755 3.738-2.265 7.363-2.265Z"/><path fill="#222" d="M189.088 86.81c0 .939.761 3.115 1.699 3.115s1.983-.76 1.983-1.699c0-.938-1.044-3.115-1.983-3.115a1.7 1.7 0 0 0-1.699 1.7m-7.082 5.097c0 .938 1.327 3.115 2.266 3.115.938 0 1.982-.761 1.982-1.7 0-.938-1.044-3.114-1.982-3.114-.939 0-2.266.76-2.266 1.699"/><ellipse fill="#fff" rx="4.531" ry="5.38" transform="scale(-1 1)rotate(27.434 -209.732 -278.1)"/><ellipse fill="#222" rx="3.922" ry="4.658" transform="scale(-1 1)rotate(27.434 -210.603 -279.79)"/><ellipse fill="#fff" rx="4.531" ry="5.38" transform="scale(-1 1)rotate(27.434 -218.87 -250.059)"/><ellipse fill="#222" rx="3.922" ry="4.658" transform="scale(-1 1)rotate(27.434 -220.02 -252.901)"/><path stroke="#04294F" stroke-linecap="round" stroke-linejoin="round" stroke-width="2.982" d="M187.67 82.28c-4.814 0-28.601.566-30.584 22.937-.251 2.832.283 8.212 4.814 12.743m-34.265-37.663c1.416 3.02 12.46 17.16 19.257 22.371M23.708 211.977c-1.888 4.058-3.059 11.327-2.832 14.725M9.549 215.375c-1.888 4.059 5.437 13.592 5.663 16.991m.567-15.292c-.284 1.699-.284 2.832 0 3.964m137.626 46.159c-1.699 3.398-9.628 24.637-32.566 32.283m20.389 76.742c-.566 2.548-1.133 4.757-1.133 5.663m-25.486-7.646c-.566 2.549.85 2.776.85 3.682m-58.336 3.398c.567 1.982 1.133 2.549 1.133 3.398m-42.194-8.212c-.567 2.549 1.699 4.191 1.699 5.097"/></svg>