<svg width="114" height="94" viewBox="0 0 114 94" fill="none" xmlns="http://www.w3.org/2000/svg">
<ellipse cx="19.5037" cy="3.16656" rx="2.5" ry="2.62469" transform="rotate(14.4844 19.5037 3.16656)" fill="#0B50FF"/>
<ellipse cx="8.55245" cy="45.5593" rx="2.5" ry="2.62469" transform="rotate(14.4844 8.55245 45.5593)" fill="#0B50FF"/>
<ellipse cx="55.7053" cy="12.5184" rx="2.5" ry="2.62469" transform="rotate(14.4844 55.7053 12.5184)" fill="#0B50FF"/>
<ellipse cx="44.7541" cy="54.9112" rx="2.5" ry="2.62469" transform="rotate(14.4844 44.7541 54.9112)" fill="#0B50FF"/>
<ellipse cx="91.9069" cy="21.8703" rx="2.5" ry="2.62469" transform="rotate(14.4844 91.9069 21.8703)" fill="#0B50FF"/>
<ellipse cx="80.9557" cy="64.2631" rx="2.5" ry="2.62469" transform="rotate(14.4844 80.9557 64.2631)" fill="#0B50FF"/>
<ellipse cx="14.0281" cy="24.3628" rx="2.5" ry="2.62469" transform="rotate(14.4844 14.0281 24.3628)" fill="#0B50FF"/>
<ellipse cx="3.07699" cy="66.7554" rx="2.5" ry="2.62469" transform="rotate(14.4844 3.07699 66.7554)" fill="#0B50FF"/>
<ellipse cx="50.2297" cy="33.7147" rx="2.5" ry="2.62469" transform="rotate(14.4844 50.2297 33.7147)" fill="#0B50FF"/>
<ellipse cx="39.2786" cy="76.1072" rx="2.5" ry="2.62469" transform="rotate(14.4844 39.2786 76.1072)" fill="#0B50FF"/>
<ellipse cx="86.4313" cy="43.0666" rx="2.5" ry="2.62469" transform="rotate(14.4844 86.4313 43.0666)" fill="#0B50FF"/>
<ellipse cx="75.4802" cy="85.4591" rx="2.5" ry="2.62469" transform="rotate(14.4844 75.4802 85.4591)" fill="#0B50FF"/>
<ellipse cx="37.6045" cy="7.84252" rx="2.5" ry="2.62469" transform="rotate(14.4844 37.6045 7.84252)" fill="#0B50FF"/>
<ellipse cx="26.6533" cy="50.2353" rx="2.5" ry="2.62469" transform="rotate(14.4844 26.6533 50.2353)" fill="#0B50FF"/>
<ellipse cx="73.8061" cy="17.1943" rx="2.5" ry="2.62469" transform="rotate(14.4844 73.8061 17.1943)" fill="#0B50FF"/>
<ellipse cx="62.8549" cy="59.5872" rx="2.5" ry="2.62469" transform="rotate(14.4844 62.8549 59.5872)" fill="#0B50FF"/>
<ellipse cx="110.008" cy="26.5462" rx="2.5" ry="2.62469" transform="rotate(14.4844 110.008 26.5462)" fill="#0B50FF"/>
<ellipse cx="99.0565" cy="68.939" rx="2.5" ry="2.62469" transform="rotate(14.4844 99.0565 68.939)" fill="#0B50FF"/>
<ellipse cx="32.1289" cy="29.0388" rx="2.5" ry="2.62469" transform="rotate(14.4844 32.1289 29.0388)" fill="#0B50FF"/>
<ellipse cx="21.1778" cy="71.4313" rx="2.5" ry="2.62469" transform="rotate(14.4844 21.1778 71.4313)" fill="#0B50FF"/>
<ellipse cx="68.3305" cy="38.3906" rx="2.5" ry="2.62469" transform="rotate(14.4844 68.3305 38.3906)" fill="#0B50FF"/>
<ellipse cx="57.3794" cy="80.7831" rx="2.5" ry="2.62469" transform="rotate(14.4844 57.3794 80.7831)" fill="#0B50FF"/>
<ellipse cx="104.532" cy="47.7425" rx="2.5" ry="2.62469" transform="rotate(14.4844 104.532 47.7425)" fill="#0B50FF"/>
<ellipse cx="93.581" cy="90.135" rx="2.5" ry="2.62469" transform="rotate(14.4844 93.581 90.135)" fill="#0B50FF"/>
</svg>
