<svg width="104" height="76" viewBox="0 0 104 76" fill="none" xmlns="http://www.w3.org/2000/svg">
<ellipse cx="4.79624" cy="5" rx="4.79624" ry="5" fill="#377DFF"/>
<ellipse cx="4.79624" cy="48.7843" rx="4.79624" ry="5" fill="#377DFF"/>
<ellipse cx="42.4514" cy="5" rx="4.79624" ry="5" fill="#377DFF"/>
<ellipse cx="42.4514" cy="48.7843" rx="4.79624" ry="5" fill="#377DFF"/>
<ellipse cx="80.1066" cy="5" rx="4.79624" ry="5" fill="#377DFF"/>
<ellipse cx="80.1066" cy="48.7843" rx="4.79624" ry="5" fill="#377DFF"/>
<ellipse cx="4.79624" cy="26.8921" rx="4.79624" ry="5" fill="#377DFF"/>
<ellipse cx="4.79624" cy="70.6764" rx="4.79624" ry="5" fill="#377DFF"/>
<ellipse cx="42.4514" cy="26.8921" rx="4.79624" ry="5" fill="#377DFF"/>
<ellipse cx="42.4514" cy="70.6764" rx="4.79624" ry="5" fill="#377DFF"/>
<ellipse cx="80.1066" cy="26.8921" rx="4.79624" ry="5" fill="#377DFF"/>
<ellipse cx="80.1066" cy="70.6764" rx="4.79624" ry="5" fill="#377DFF"/>
<ellipse cx="23.6238" cy="5" rx="4.79624" ry="5" fill="#377DFF"/>
<ellipse cx="23.6238" cy="48.7843" rx="4.79624" ry="5" fill="#377DFF"/>
<ellipse cx="61.279" cy="5" rx="4.79624" ry="5" fill="#377DFF"/>
<ellipse cx="61.279" cy="48.7843" rx="4.79624" ry="5" fill="#377DFF"/>
<ellipse cx="98.9342" cy="5" rx="4.79624" ry="5" fill="#377DFF"/>
<ellipse cx="98.9342" cy="48.7843" rx="4.79624" ry="5" fill="#377DFF"/>
<ellipse cx="23.6238" cy="26.8921" rx="4.79624" ry="5" fill="#377DFF"/>
<ellipse cx="23.6238" cy="70.6764" rx="4.79624" ry="5" fill="#377DFF"/>
<ellipse cx="61.279" cy="26.8921" rx="4.79624" ry="5" fill="#377DFF"/>
<ellipse cx="61.279" cy="70.6764" rx="4.79624" ry="5" fill="#377DFF"/>
<ellipse cx="98.9342" cy="26.8921" rx="4.79624" ry="5" fill="#377DFF"/>
<ellipse cx="98.9342" cy="70.6764" rx="4.79624" ry="5" fill="#377DFF"/>
</svg>
